%TF.GenerationSoftware,KiCad,Pcbnew,6.0.5-a6ca702e91~116~ubuntu20.04.1*%
%TF.CreationDate,2022-07-08T00:26:13+03:00*%
%TF.ProjectId,kolos_system_2022,6b6f6c6f-735f-4737-9973-74656d5f3230,rev?*%
%TF.SameCoordinates,Original*%
%TF.FileFunction,Paste,Top*%
%TF.FilePolarity,Positive*%
%FSLAX46Y46*%
G04 Gerber Fmt 4.6, Leading zero omitted, Abs format (unit mm)*
G04 Created by KiCad (PCBNEW 6.0.5-a6ca702e91~116~ubuntu20.04.1) date 2022-07-08 00:26:13*
%MOMM*%
%LPD*%
G01*
G04 APERTURE LIST*
G04 Aperture macros list*
%AMRoundRect*
0 Rectangle with rounded corners*
0 $1 Rounding radius*
0 $2 $3 $4 $5 $6 $7 $8 $9 X,Y pos of 4 corners*
0 Add a 4 corners polygon primitive as box body*
4,1,4,$2,$3,$4,$5,$6,$7,$8,$9,$2,$3,0*
0 Add four circle primitives for the rounded corners*
1,1,$1+$1,$2,$3*
1,1,$1+$1,$4,$5*
1,1,$1+$1,$6,$7*
1,1,$1+$1,$8,$9*
0 Add four rect primitives between the rounded corners*
20,1,$1+$1,$2,$3,$4,$5,0*
20,1,$1+$1,$4,$5,$6,$7,0*
20,1,$1+$1,$6,$7,$8,$9,0*
20,1,$1+$1,$8,$9,$2,$3,0*%
G04 Aperture macros list end*
%ADD10RoundRect,0.250000X0.625000X-0.312500X0.625000X0.312500X-0.625000X0.312500X-0.625000X-0.312500X0*%
%ADD11R,2.500000X2.300000*%
%ADD12R,0.700000X0.450000*%
%ADD13RoundRect,0.250000X-0.375000X-0.625000X0.375000X-0.625000X0.375000X0.625000X-0.375000X0.625000X0*%
%ADD14RoundRect,0.250000X0.312500X0.625000X-0.312500X0.625000X-0.312500X-0.625000X0.312500X-0.625000X0*%
%ADD15RoundRect,0.250000X0.650000X-0.325000X0.650000X0.325000X-0.650000X0.325000X-0.650000X-0.325000X0*%
%ADD16RoundRect,0.150000X-0.725000X-0.150000X0.725000X-0.150000X0.725000X0.150000X-0.725000X0.150000X0*%
%ADD17RoundRect,0.250000X-0.325000X-0.650000X0.325000X-0.650000X0.325000X0.650000X-0.325000X0.650000X0*%
%ADD18RoundRect,0.250000X-0.312500X-0.625000X0.312500X-0.625000X0.312500X0.625000X-0.312500X0.625000X0*%
%ADD19RoundRect,1.619250X2.413000X1.619250X-2.413000X1.619250X-2.413000X-1.619250X2.413000X-1.619250X0*%
%ADD20RoundRect,1.912938X2.420937X1.912937X-2.420937X1.912937X-2.420937X-1.912937X2.420937X-1.912937X0*%
%ADD21RoundRect,1.682750X2.476500X1.682750X-2.476500X1.682750X-2.476500X-1.682750X2.476500X-1.682750X0*%
%ADD22RoundRect,1.905000X2.603500X1.905000X-2.603500X1.905000X-2.603500X-1.905000X2.603500X-1.905000X0*%
%ADD23RoundRect,0.250000X-0.625000X0.312500X-0.625000X-0.312500X0.625000X-0.312500X0.625000X0.312500X0*%
G04 APERTURE END LIST*
D10*
%TO.C,RR1*%
X144018000Y-48579500D03*
X144018000Y-45654500D03*
%TD*%
D11*
%TO.C,D1*%
X112649000Y-115062000D03*
X108349000Y-115062000D03*
%TD*%
D12*
%TO.C,Q6*%
X47863000Y-49926000D03*
X47863000Y-48626000D03*
X45863000Y-49276000D03*
%TD*%
D13*
%TO.C,DRR1*%
X132455000Y-46101000D03*
X135255000Y-46101000D03*
%TD*%
D14*
%TO.C,R16*%
X136271000Y-145542000D03*
X133346000Y-145542000D03*
%TD*%
D13*
%TO.C,D7*%
X133477000Y-142367000D03*
X136277000Y-142367000D03*
%TD*%
D10*
%TO.C,RR5*%
X74041000Y-48706500D03*
X74041000Y-45781500D03*
%TD*%
D13*
%TO.C,DRR5*%
X62732000Y-45974000D03*
X65532000Y-45974000D03*
%TD*%
D15*
%TO.C,C5*%
X136652000Y-125681000D03*
X136652000Y-122731000D03*
%TD*%
D16*
%TO.C,UMAX1*%
X126457000Y-122223000D03*
X126457000Y-123493000D03*
X126457000Y-124763000D03*
X126457000Y-126033000D03*
X131607000Y-126033000D03*
X131607000Y-124763000D03*
X131607000Y-123493000D03*
X131607000Y-122223000D03*
%TD*%
D17*
%TO.C,C3*%
X108683000Y-141859000D03*
X111633000Y-141859000D03*
%TD*%
D12*
%TO.C,Q2*%
X116570000Y-50434000D03*
X116570000Y-49134000D03*
X114570000Y-49784000D03*
%TD*%
D13*
%TO.C,DRR3*%
X97022000Y-45974000D03*
X99822000Y-45974000D03*
%TD*%
D18*
%TO.C,RAIN3*%
X133030500Y-204359000D03*
X135955500Y-204359000D03*
%TD*%
%TO.C,R5*%
X139126500Y-132334000D03*
X142051500Y-132334000D03*
%TD*%
D12*
%TO.C,Q3*%
X98917000Y-49672000D03*
X98917000Y-48372000D03*
X96917000Y-49022000D03*
%TD*%
D14*
%TO.C,R18*%
X141736000Y-108585000D03*
X138811000Y-108585000D03*
%TD*%
D13*
%TO.C,DRR2*%
X114167000Y-46482000D03*
X116967000Y-46482000D03*
%TD*%
D18*
%TO.C,R4*%
X139126500Y-123444000D03*
X142051500Y-123444000D03*
%TD*%
%TO.C,R17*%
X130617500Y-111633000D03*
X133542500Y-111633000D03*
%TD*%
%TO.C,R3*%
X138999500Y-112014000D03*
X141924500Y-112014000D03*
%TD*%
D10*
%TO.C,RR3*%
X108712000Y-48833500D03*
X108712000Y-45908500D03*
%TD*%
D13*
%TO.C,DRR4*%
X79372000Y-45720000D03*
X82172000Y-45720000D03*
%TD*%
D19*
%TO.C,FL1*%
X49784000Y-218005438D03*
D20*
X47752000Y-107642438D03*
D21*
X64008000Y-218068938D03*
D22*
X65532000Y-107642438D03*
%TD*%
D10*
%TO.C,R7*%
X127000000Y-134558500D03*
X127000000Y-131633500D03*
%TD*%
D17*
%TO.C,C1*%
X108888000Y-129921000D03*
X111838000Y-129921000D03*
%TD*%
D14*
%TO.C,RRR4*%
X82361500Y-52451000D03*
X79436500Y-52451000D03*
%TD*%
D18*
%TO.C,RAIN2*%
X126553500Y-204395000D03*
X129478500Y-204395000D03*
%TD*%
%TO.C,RAIN1*%
X120265000Y-204343000D03*
X123190000Y-204343000D03*
%TD*%
D14*
%TO.C,RRR6*%
X49403000Y-52959000D03*
X46478000Y-52959000D03*
%TD*%
D10*
%TO.C,R11*%
X134747000Y-134624000D03*
X134747000Y-131699000D03*
%TD*%
D12*
%TO.C,Q5*%
X64627000Y-49926000D03*
X64627000Y-48626000D03*
X62627000Y-49276000D03*
%TD*%
D18*
%TO.C,R1WIRE1*%
X137029000Y-164719000D03*
X139954000Y-164719000D03*
%TD*%
D14*
%TO.C,RRR1*%
X135382000Y-53340000D03*
X132457000Y-53340000D03*
%TD*%
%TO.C,R19*%
X141924500Y-119634000D03*
X138999500Y-119634000D03*
%TD*%
%TO.C,RRR3*%
X100203000Y-52705000D03*
X97278000Y-52705000D03*
%TD*%
D11*
%TO.C,D2*%
X109102000Y-157353000D03*
X113402000Y-157353000D03*
%TD*%
D18*
%TO.C,RAIN5*%
X146681000Y-204343000D03*
X149606000Y-204343000D03*
%TD*%
D23*
%TO.C,R12*%
X130810000Y-133792500D03*
X130810000Y-136717500D03*
%TD*%
D14*
%TO.C,RRR2*%
X117286500Y-53594000D03*
X114361500Y-53594000D03*
%TD*%
D10*
%TO.C,RR6*%
X57277000Y-48645000D03*
X57277000Y-45720000D03*
%TD*%
D18*
%TO.C,RAIN4*%
X140077000Y-204343000D03*
X143002000Y-204343000D03*
%TD*%
%TO.C,RAIN6*%
X154366500Y-204343000D03*
X157291500Y-204343000D03*
%TD*%
D13*
%TO.C,DRR6*%
X45968000Y-45974000D03*
X48768000Y-45974000D03*
%TD*%
D14*
%TO.C,RRR5*%
X65278000Y-53340000D03*
X62353000Y-53340000D03*
%TD*%
D12*
%TO.C,Q1*%
X134157500Y-50307000D03*
X134157500Y-49007000D03*
X132157500Y-49657000D03*
%TD*%
D15*
%TO.C,C6*%
X134239000Y-125681000D03*
X134239000Y-122731000D03*
%TD*%
D12*
%TO.C,Q4*%
X81518000Y-50434000D03*
X81518000Y-49134000D03*
X79518000Y-49784000D03*
%TD*%
D10*
%TO.C,RR2*%
X125349000Y-48833500D03*
X125349000Y-45908500D03*
%TD*%
D18*
%TO.C,R6*%
X138999500Y-144145000D03*
X141924500Y-144145000D03*
%TD*%
D10*
%TO.C,RR4*%
X90678000Y-48772000D03*
X90678000Y-45847000D03*
%TD*%
M02*
