%TF.GenerationSoftware,KiCad,Pcbnew,6.0.5-a6ca702e91~116~ubuntu20.04.1*%
%TF.CreationDate,2022-07-08T00:26:13+03:00*%
%TF.ProjectId,kolos_system_2022,6b6f6c6f-735f-4737-9973-74656d5f3230,rev?*%
%TF.SameCoordinates,Original*%
%TF.FileFunction,Soldermask,Bot*%
%TF.FilePolarity,Negative*%
%FSLAX46Y46*%
G04 Gerber Fmt 4.6, Leading zero omitted, Abs format (unit mm)*
G04 Created by KiCad (PCBNEW 6.0.5-a6ca702e91~116~ubuntu20.04.1) date 2022-07-08 00:26:13*
%MOMM*%
%LPD*%
G01*
G04 APERTURE LIST*
G04 Aperture macros list*
%AMRoundRect*
0 Rectangle with rounded corners*
0 $1 Rounding radius*
0 $2 $3 $4 $5 $6 $7 $8 $9 X,Y pos of 4 corners*
0 Add a 4 corners polygon primitive as box body*
4,1,4,$2,$3,$4,$5,$6,$7,$8,$9,$2,$3,0*
0 Add four circle primitives for the rounded corners*
1,1,$1+$1,$2,$3*
1,1,$1+$1,$4,$5*
1,1,$1+$1,$6,$7*
1,1,$1+$1,$8,$9*
0 Add four rect primitives between the rounded corners*
20,1,$1+$1,$2,$3,$4,$5,0*
20,1,$1+$1,$4,$5,$6,$7,0*
20,1,$1+$1,$6,$7,$8,$9,0*
20,1,$1+$1,$8,$9,$2,$3,0*%
G04 Aperture macros list end*
%ADD10R,1.700000X1.700000*%
%ADD11O,1.700000X1.700000*%
%ADD12C,3.250000*%
%ADD13R,1.500000X1.500000*%
%ADD14C,1.500000*%
%ADD15C,2.300000*%
%ADD16RoundRect,0.250001X-1.099999X-1.399999X1.099999X-1.399999X1.099999X1.399999X-1.099999X1.399999X0*%
%ADD17O,2.700000X3.300000*%
%ADD18R,2.000000X2.300000*%
%ADD19R,1.600000X1.600000*%
%ADD20O,1.600000X1.600000*%
%ADD21RoundRect,0.250001X1.099999X1.399999X-1.099999X1.399999X-1.099999X-1.399999X1.099999X-1.399999X0*%
%ADD22C,6.400000*%
%ADD23RoundRect,0.250001X1.399999X-1.099999X1.399999X1.099999X-1.399999X1.099999X-1.399999X-1.099999X0*%
%ADD24O,3.300000X2.700000*%
%ADD25R,1.800000X1.800000*%
%ADD26O,1.800000X1.800000*%
%ADD27C,3.000000*%
%ADD28C,1.600000*%
G04 APERTURE END LIST*
D10*
%TO.C,Jgnd1*%
X128499000Y-191613000D03*
D11*
X128499000Y-189073000D03*
X128499000Y-186533000D03*
X128499000Y-183993000D03*
X128499000Y-181453000D03*
%TD*%
D12*
%TO.C,J19*%
X153672000Y-143260000D03*
X153672000Y-130560000D03*
D13*
X151132000Y-133350000D03*
D14*
X149352000Y-134366000D03*
X151132000Y-135382000D03*
X149352000Y-136398000D03*
X151132000Y-137414000D03*
X149352000Y-138430000D03*
X151132000Y-139446000D03*
X149352000Y-140462000D03*
X144532000Y-130050000D03*
X144532000Y-132340000D03*
X144532000Y-141480000D03*
X144532000Y-143770000D03*
D15*
X150242000Y-128780000D03*
X150242000Y-145040000D03*
%TD*%
D12*
%TO.C,J18*%
X153543000Y-122940000D03*
X153543000Y-110240000D03*
D13*
X151003000Y-113030000D03*
D14*
X149223000Y-114046000D03*
X151003000Y-115062000D03*
X149223000Y-116078000D03*
X151003000Y-117094000D03*
X149223000Y-118110000D03*
X151003000Y-119126000D03*
X149223000Y-120142000D03*
X144403000Y-109730000D03*
X144403000Y-112020000D03*
X144403000Y-121160000D03*
X144403000Y-123450000D03*
D15*
X150113000Y-108460000D03*
X150113000Y-124720000D03*
%TD*%
D10*
%TO.C,J5v1*%
X133629000Y-181513000D03*
D11*
X133629000Y-184053000D03*
X133629000Y-186593000D03*
X133629000Y-189133000D03*
X133629000Y-191673000D03*
%TD*%
D10*
%TO.C,J2*%
X100584000Y-107188000D03*
%TD*%
%TO.C,J1*%
X96266000Y-107188000D03*
%TD*%
D16*
%TO.C,I2C-3*%
X154364000Y-168073000D03*
D17*
X158564000Y-168073000D03*
X154364000Y-173573000D03*
X158564000Y-173573000D03*
%TD*%
D10*
%TO.C,SW1*%
X130683000Y-117348000D03*
D11*
X130683000Y-114808000D03*
%TD*%
D10*
%TO.C,rel2-NC1*%
X126111000Y-83058000D03*
%TD*%
%TO.C,rel3-NC1*%
X107823000Y-82931000D03*
%TD*%
D18*
%TO.C,PS2*%
X72390000Y-158607500D03*
D15*
X77470000Y-158607500D03*
X97790000Y-140827500D03*
X102870000Y-140827500D03*
X102870000Y-158607500D03*
%TD*%
D10*
%TO.C,Ja2*%
X117856000Y-165227000D03*
D11*
X115316000Y-165227000D03*
X112776000Y-165227000D03*
X110236000Y-165227000D03*
X107696000Y-165227000D03*
X105156000Y-165227000D03*
X102616000Y-165227000D03*
X100076000Y-165227000D03*
X97536000Y-165227000D03*
X94996000Y-165227000D03*
X92456000Y-165227000D03*
X89916000Y-165227000D03*
%TD*%
D19*
%TO.C,U1*%
X140848000Y-45984000D03*
D20*
X138308000Y-45984000D03*
X138308000Y-53604000D03*
X140848000Y-53604000D03*
%TD*%
D16*
%TO.C,AIN_6*%
X155913000Y-210582000D03*
D17*
X155913000Y-216082000D03*
%TD*%
D21*
%TO.C,1WIRE2*%
X146440000Y-157988000D03*
D17*
X142240000Y-157988000D03*
X146440000Y-152488000D03*
X142240000Y-152488000D03*
%TD*%
D22*
%TO.C,H4*%
X158877000Y-41148000D03*
%TD*%
D16*
%TO.C,AIN_3*%
X134493000Y-210709000D03*
D17*
X134493000Y-216209000D03*
%TD*%
D10*
%TO.C,rel1-NC1*%
X140335000Y-82550000D03*
%TD*%
%TO.C,rel6-NC1*%
X52832000Y-83566000D03*
%TD*%
D19*
%TO.C,A1*%
X79629000Y-184394000D03*
D20*
X82169000Y-184394000D03*
X84709000Y-184394000D03*
X87249000Y-184394000D03*
X89789000Y-184394000D03*
X92329000Y-184394000D03*
X94869000Y-184394000D03*
X97409000Y-184394000D03*
X99949000Y-184394000D03*
X102489000Y-184394000D03*
X105029000Y-184394000D03*
X107569000Y-184394000D03*
X110109000Y-184394000D03*
X112649000Y-184394000D03*
X115189000Y-184394000D03*
X115189000Y-169154000D03*
X112649000Y-169154000D03*
X110109000Y-169154000D03*
X107569000Y-169154000D03*
X105029000Y-169154000D03*
X102489000Y-169154000D03*
X99949000Y-169154000D03*
X97409000Y-169154000D03*
X94869000Y-169154000D03*
X92329000Y-169154000D03*
X89789000Y-169154000D03*
X87249000Y-169154000D03*
X84709000Y-169154000D03*
X82169000Y-169154000D03*
X79629000Y-169154000D03*
%TD*%
D16*
%TO.C,AIN_1*%
X121031000Y-210709000D03*
D17*
X121031000Y-216209000D03*
%TD*%
D23*
%TO.C,DHT_2*%
X73914000Y-212598000D03*
D24*
X73914000Y-208398000D03*
X79414000Y-212598000D03*
X79414000Y-208398000D03*
%TD*%
D19*
%TO.C,U6*%
X54361000Y-45984000D03*
D20*
X51821000Y-45984000D03*
X51821000Y-53604000D03*
X54361000Y-53604000D03*
%TD*%
D21*
%TO.C,1WIRE1*%
X134570000Y-157988000D03*
D17*
X130370000Y-157988000D03*
X134570000Y-152488000D03*
X130370000Y-152488000D03*
%TD*%
D10*
%TO.C,rel4-NC1*%
X88265000Y-83058000D03*
%TD*%
%TO.C,rel2-NO1*%
X114173000Y-82931000D03*
%TD*%
D16*
%TO.C,J29*%
X83666000Y-94195000D03*
D17*
X87866000Y-94195000D03*
X92066000Y-94195000D03*
X96266000Y-94195000D03*
X100466000Y-94195000D03*
X83666000Y-99695000D03*
X87866000Y-99695000D03*
X92066000Y-99695000D03*
X96266000Y-99695000D03*
X100466000Y-99695000D03*
%TD*%
D16*
%TO.C,AIN_5*%
X148463000Y-210582000D03*
D17*
X148463000Y-216082000D03*
%TD*%
D25*
%TO.C,DR1*%
X133858000Y-56515000D03*
D26*
X141478000Y-56515000D03*
%TD*%
D10*
%TO.C,rel5-NC1*%
X60833000Y-83439000D03*
%TD*%
D22*
%TO.C,H1*%
X159004000Y-98933000D03*
%TD*%
D27*
%TO.C,K2*%
X114142000Y-64689000D03*
X120142000Y-62689000D03*
X114142000Y-76889000D03*
X126142000Y-76889000D03*
X126142000Y-64689000D03*
%TD*%
D25*
%TO.C,DR6*%
X46482000Y-56642000D03*
D26*
X54102000Y-56642000D03*
%TD*%
D19*
%TO.C,U5*%
X71125000Y-45984000D03*
D20*
X68585000Y-45984000D03*
X68585000Y-53604000D03*
X71125000Y-53604000D03*
%TD*%
D18*
%TO.C,PS1*%
X72009000Y-132318500D03*
D15*
X77089000Y-132318500D03*
X97409000Y-114538500D03*
X102489000Y-114538500D03*
X102489000Y-132318500D03*
%TD*%
D21*
%TO.C,1WIRE3*%
X157870000Y-157988000D03*
D17*
X153670000Y-157988000D03*
X157870000Y-152488000D03*
X153670000Y-152488000D03*
%TD*%
D27*
%TO.C,K4*%
X77947000Y-65070000D03*
X83947000Y-63070000D03*
X77947000Y-77270000D03*
X89947000Y-77270000D03*
X89947000Y-65070000D03*
%TD*%
D19*
%TO.C,C4*%
X109845349Y-149352000D03*
D28*
X112345349Y-149352000D03*
%TD*%
D19*
%TO.C,U4*%
X87762000Y-46111000D03*
D20*
X85222000Y-46111000D03*
X85222000Y-53731000D03*
X87762000Y-53731000D03*
%TD*%
D16*
%TO.C,AIN_4*%
X141732000Y-210491000D03*
D17*
X141732000Y-215991000D03*
%TD*%
D27*
%TO.C,K1*%
X131922000Y-64689000D03*
X137922000Y-62689000D03*
X131922000Y-76889000D03*
X143922000Y-76889000D03*
X143922000Y-64689000D03*
%TD*%
D10*
%TO.C,rel6-NO1*%
X44196000Y-83693000D03*
%TD*%
D25*
%TO.C,DR4*%
X80010000Y-56642000D03*
D26*
X87630000Y-56642000D03*
%TD*%
D10*
%TO.C,rel1-NO1*%
X131826000Y-82677000D03*
%TD*%
D16*
%TO.C,AIN_2*%
X127762000Y-210745000D03*
D17*
X127762000Y-216245000D03*
%TD*%
D16*
%TO.C,I2C-2*%
X154423000Y-184912000D03*
D17*
X158623000Y-184912000D03*
X154423000Y-190412000D03*
X158623000Y-190412000D03*
%TD*%
D22*
%TO.C,H3*%
X41148000Y-218567000D03*
%TD*%
D25*
%TO.C,DR3*%
X97917000Y-56642000D03*
D26*
X105537000Y-56642000D03*
%TD*%
D10*
%TO.C,Ja1*%
X117729000Y-188595000D03*
D11*
X115189000Y-188595000D03*
X112649000Y-188595000D03*
X110109000Y-188595000D03*
X107569000Y-188595000D03*
X105029000Y-188595000D03*
X102489000Y-188595000D03*
X99949000Y-188595000D03*
X97409000Y-188595000D03*
X94869000Y-188595000D03*
X92329000Y-188595000D03*
X89789000Y-188595000D03*
%TD*%
D19*
%TO.C,U2*%
X122306000Y-46238000D03*
D20*
X119766000Y-46238000D03*
X119766000Y-53858000D03*
X122306000Y-53858000D03*
%TD*%
D23*
%TO.C,DHT_1*%
X73839000Y-197299000D03*
D24*
X73839000Y-193099000D03*
X79339000Y-197299000D03*
X79339000Y-193099000D03*
%TD*%
D10*
%TO.C,rel3-NO1*%
X95631000Y-82931000D03*
%TD*%
D25*
%TO.C,DR2*%
X116205000Y-56769000D03*
D26*
X123825000Y-56769000D03*
%TD*%
D25*
%TO.C,DR5*%
X63627000Y-56769000D03*
D26*
X71247000Y-56769000D03*
%TD*%
D10*
%TO.C,rel4-NO1*%
X78105000Y-83312000D03*
%TD*%
D19*
%TO.C,U3*%
X105669000Y-46111000D03*
D20*
X103129000Y-46111000D03*
X103129000Y-53731000D03*
X105669000Y-53731000D03*
%TD*%
D10*
%TO.C,rel5-NO1*%
X72136000Y-83312000D03*
%TD*%
D22*
%TO.C,H2*%
X41783000Y-41275000D03*
%TD*%
D16*
%TO.C,I2C-1*%
X139505000Y-184964000D03*
D17*
X143705000Y-184964000D03*
X139505000Y-190464000D03*
X143705000Y-190464000D03*
%TD*%
D27*
%TO.C,K5*%
X61183000Y-64943000D03*
X67183000Y-62943000D03*
X61183000Y-77143000D03*
X73183000Y-77143000D03*
X73183000Y-64943000D03*
%TD*%
%TO.C,K6*%
X44292000Y-64816000D03*
X50292000Y-62816000D03*
X44292000Y-77016000D03*
X56292000Y-77016000D03*
X56292000Y-64816000D03*
%TD*%
%TO.C,K3*%
X95727000Y-65070000D03*
X101727000Y-63070000D03*
X95727000Y-77270000D03*
X107727000Y-77270000D03*
X107727000Y-65070000D03*
%TD*%
D19*
%TO.C,C2*%
X111769651Y-123063000D03*
D28*
X109269651Y-123063000D03*
%TD*%
M02*
