M48
; DRILL file {KiCad 6.0.6-3a73a75311~116~ubuntu20.04.1} date Пт 08 июл 2022 20:35:43
; FORMAT={2:4/ absolute / inch / suppress leading zeros}
; #@! TF.CreationDate,2022-07-08T20:35:43+03:00
; #@! TF.GenerationSoftware,Kicad,Pcbnew,6.0.6-3a73a75311~116~ubuntu20.04.1
; #@! TF.FileFunction,Plated,1,4,PTH
FMAT,2
INCH,TZ
; #@! TA.AperFunction,Plated,PTH,ViaDrill
T1C0.0118
; #@! TA.AperFunction,Plated,PTH,ViaDrill
T2C0.0157
; #@! TA.AperFunction,Plated,PTH,ComponentDrill
T3C0.0299
; #@! TA.AperFunction,Plated,PTH,ComponentDrill
T4C0.0315
; #@! TA.AperFunction,Plated,PTH,ComponentDrill
T5C0.0350
; #@! TA.AperFunction,Plated,PTH,ComponentDrill
T6C0.0354
; #@! TA.AperFunction,Plated,PTH,ViaDrill
T7C0.0394
; #@! TA.AperFunction,Plated,PTH,ComponentDrill
T8C0.0394
; #@! TA.AperFunction,Plated,PTH,ComponentDrill
T9C0.0512
; #@! TA.AperFunction,Plated,PTH,ComponentDrill
T10C0.0551
; #@! TA.AperFunction,Plated,PTH,ComponentDrill
T11C0.0618
; #@! TA.AperFunction,Plated,PTH,ComponentDrill
T12C0.1260
%
G90
G05
T1
X42000Y-70100
X47050Y-69750
X48000Y-79700
X48900Y-57450
X49000Y-58400
X49050Y-48650
X49200Y-51250
X49600Y-69850
X49700Y-70500
X49850Y-67450
X49950Y-50950
X50650Y-67700
X50650Y-79700
X50850Y-51550
X50850Y-66950
X51050Y-49100
X51300Y-50850
X51300Y-69300
X51350Y-68400
X51450Y-67500
X51500Y-54650
X52150Y-67850
X52250Y-52550
X52600Y-69600
X53500Y-79700
X53650Y-47500
X53800Y-52450
X56250Y-79700
X57000Y-53050
X57450Y-53850
X57450Y-54550
X58900Y-79700
X60750Y-54100
X61200Y-79200
X62050Y-53650
X63150Y-52500
T2
X20700Y-19450
X27450Y-19578
X32350Y-74150
X32350Y-75450
X33950Y-19578
X40900Y-19450
X42657Y-42843
X42800Y-54350
X42900Y-63600
X44350Y-42850
X44800Y-63600
X47550Y-19578
X50250Y-54100
X52600Y-45700
X53050Y-54100
X53400Y-43750
X53750Y-50300
X54700Y-19578
X56700Y-46650
X57100Y-22200
T3
X38350Y-45094
X38500Y-55444
X40350Y-45094
X40350Y-52094
X40500Y-55444
X40500Y-62444
T4
X20402Y-18104
X20402Y-21104
X21402Y-18104
X21402Y-21104
X27002Y-18104
X27002Y-21104
X28002Y-18104
X28002Y-21104
X28350Y-52094
X28500Y-62444
X30350Y-52094
X30500Y-62444
X33552Y-18154
X33552Y-21154
X34552Y-18154
X34552Y-21154
X40602Y-18154
X40602Y-21154
X41602Y-18154
X41602Y-21154
X43020Y-48450
X43246Y-58800
X44004Y-48450
X44230Y-58800
X47152Y-18204
X47152Y-21204
X48152Y-18204
X48152Y-21204
X54452Y-18104
X54452Y-21104
X55452Y-18104
X55452Y-21104
T5
X56852Y-43201
X56852Y-44102
X56852Y-47701
X56852Y-48602
X56902Y-51199
X56902Y-52101
X56902Y-55699
X56902Y-56601
X58749Y-44900
X58749Y-45700
X58749Y-46500
X58749Y-47300
X58800Y-52898
X58800Y-53698
X58800Y-54498
X58800Y-55298
X59450Y-44500
X59450Y-45300
X59450Y-46100
X59450Y-46900
X59501Y-52498
X59501Y-53298
X59501Y-54098
X59501Y-54898
T6
X18300Y-22300
X21300Y-22300
X25050Y-22350
X28050Y-22350
X31500Y-22300
X34500Y-22300
X38550Y-22300
X41550Y-22300
X45750Y-22350
X48750Y-22350
X52700Y-22250
X55700Y-22250
T7
X23600Y-46950
T8
X17400Y-32950
X20800Y-32900
X23950Y-32850
X28400Y-32800
X30750Y-32800
X31350Y-66596
X31350Y-72596
X32350Y-66596
X32350Y-72596
X33350Y-66596
X33350Y-72596
X34350Y-66596
X34350Y-72596
X34750Y-32700
X35350Y-66596
X35350Y-72596
X35350Y-74250
X35400Y-65050
X36350Y-66596
X36350Y-72596
X36350Y-74250
X36400Y-65050
X37350Y-66596
X37350Y-72596
X37350Y-74250
X37400Y-65050
X37650Y-32650
X37719Y-42150
X38350Y-66596
X38350Y-72596
X38350Y-74250
X38400Y-65050
X39350Y-66596
X39350Y-72596
X39350Y-74250
X39400Y-65050
X39550Y-42150
X40350Y-66596
X40350Y-72596
X40350Y-74250
X40400Y-65050
X41350Y-66596
X41350Y-72596
X41350Y-74250
X41400Y-65050
X42350Y-66596
X42350Y-72596
X42350Y-74250
X42400Y-65050
X42450Y-32650
X43350Y-66596
X43350Y-72596
X43350Y-74250
X43400Y-65050
X44350Y-66596
X44350Y-72596
X44350Y-74250
X44400Y-65050
X44950Y-32650
X45350Y-66596
X45350Y-72596
X45350Y-74250
X45400Y-65050
X46350Y-74250
X46400Y-65050
X49650Y-32700
X50600Y-71400
X50600Y-72400
X50600Y-73400
X50600Y-74400
X50600Y-75400
X51450Y-45200
X51450Y-46200
X51900Y-32550
X52650Y-71450
X52650Y-72450
X52650Y-73450
X52650Y-74450
X52650Y-75450
X55250Y-32500
T9
X17438Y-25518
X17438Y-30321
X19800Y-24731
X22162Y-25518
X22162Y-30321
X24088Y-25568
X24088Y-30371
X26450Y-24781
X28812Y-25568
X28812Y-30371
X30688Y-25618
X30688Y-30421
X33050Y-24831
X35412Y-25618
X35412Y-30421
X37688Y-25618
X37688Y-30421
X40050Y-24831
X42412Y-25618
X42412Y-30421
X44938Y-25468
X44938Y-30271
X47300Y-24681
X49662Y-25468
X49662Y-30271
X51938Y-25468
X51938Y-30271
X54300Y-24681
X56662Y-25468
X56662Y-30271
T10
X29070Y-76023
X29070Y-77677
X29100Y-82046
X29100Y-83700
X31236Y-76023
X31236Y-77677
X31265Y-82046
X31265Y-83700
X32939Y-37085
X32939Y-39250
X34593Y-37085
X34593Y-39250
X36246Y-37085
X36246Y-39250
X37900Y-37085
X37900Y-39250
X39554Y-37085
X39554Y-39250
X47650Y-82956
X47650Y-85122
X50300Y-82970
X50300Y-85136
X51327Y-60035
X51327Y-62200
X52950Y-82956
X52950Y-85122
X52980Y-60035
X52980Y-62200
X54923Y-72820
X54923Y-74986
X55800Y-82870
X55800Y-85036
X56000Y-60035
X56000Y-62200
X56577Y-72820
X56577Y-74986
X57654Y-60035
X57654Y-62200
X58450Y-82906
X58450Y-85072
X60500Y-60035
X60500Y-62200
X60773Y-66170
X60773Y-68336
X60796Y-72800
X60796Y-74965
X61383Y-82906
X61383Y-85072
X62154Y-60035
X62154Y-62200
X62427Y-66170
X62427Y-68336
X62450Y-72800
X62450Y-74965
T11
X59100Y-42701
X59100Y-49102
X59150Y-50699
X59150Y-57101
T12
X16200Y-86050
X16450Y-16250
X62550Y-16200
X62600Y-38950
T0
M30
