%TF.GenerationSoftware,KiCad,Pcbnew,6.0.6-3a73a75311~116~ubuntu20.04.1*%
%TF.CreationDate,2022-07-08T20:35:28+03:00*%
%TF.ProjectId,kolos_system_2022,6b6f6c6f-735f-4737-9973-74656d5f3230,rev?*%
%TF.SameCoordinates,Original*%
%TF.FileFunction,Soldermask,Top*%
%TF.FilePolarity,Negative*%
%FSLAX46Y46*%
G04 Gerber Fmt 4.6, Leading zero omitted, Abs format (unit mm)*
G04 Created by KiCad (PCBNEW 6.0.6-3a73a75311~116~ubuntu20.04.1) date 2022-07-08 20:35:28*
%MOMM*%
%LPD*%
G01*
G04 APERTURE LIST*
G04 Aperture macros list*
%AMRoundRect*
0 Rectangle with rounded corners*
0 $1 Rounding radius*
0 $2 $3 $4 $5 $6 $7 $8 $9 X,Y pos of 4 corners*
0 Add a 4 corners polygon primitive as box body*
4,1,4,$2,$3,$4,$5,$6,$7,$8,$9,$2,$3,0*
0 Add four circle primitives for the rounded corners*
1,1,$1+$1,$2,$3*
1,1,$1+$1,$4,$5*
1,1,$1+$1,$6,$7*
1,1,$1+$1,$8,$9*
0 Add four rect primitives between the rounded corners*
20,1,$1+$1,$2,$3,$4,$5,0*
20,1,$1+$1,$4,$5,$6,$7,0*
20,1,$1+$1,$6,$7,$8,$9,0*
20,1,$1+$1,$8,$9,$2,$3,0*%
G04 Aperture macros list end*
%ADD10R,1.700000X1.700000*%
%ADD11RoundRect,0.250001X-1.099999X-1.399999X1.099999X-1.399999X1.099999X1.399999X-1.099999X1.399999X0*%
%ADD12O,2.700000X3.300000*%
%ADD13RoundRect,0.250000X0.625000X-0.312500X0.625000X0.312500X-0.625000X0.312500X-0.625000X-0.312500X0*%
%ADD14O,1.700000X1.700000*%
%ADD15R,2.500000X2.300000*%
%ADD16R,0.700000X0.450000*%
%ADD17C,3.250000*%
%ADD18R,1.500000X1.500000*%
%ADD19C,1.500000*%
%ADD20C,2.300000*%
%ADD21RoundRect,0.250000X-0.375000X-0.625000X0.375000X-0.625000X0.375000X0.625000X-0.375000X0.625000X0*%
%ADD22R,2.000000X2.300000*%
%ADD23RoundRect,0.250000X0.312500X0.625000X-0.312500X0.625000X-0.312500X-0.625000X0.312500X-0.625000X0*%
%ADD24RoundRect,0.250000X0.650000X-0.325000X0.650000X0.325000X-0.650000X0.325000X-0.650000X-0.325000X0*%
%ADD25RoundRect,0.150000X-0.725000X-0.150000X0.725000X-0.150000X0.725000X0.150000X-0.725000X0.150000X0*%
%ADD26R,1.600000X1.600000*%
%ADD27O,1.600000X1.600000*%
%ADD28RoundRect,0.250000X-0.325000X-0.650000X0.325000X-0.650000X0.325000X0.650000X-0.325000X0.650000X0*%
%ADD29RoundRect,0.250001X1.099999X1.399999X-1.099999X1.399999X-1.099999X-1.399999X1.099999X-1.399999X0*%
%ADD30C,6.400000*%
%ADD31RoundRect,0.250000X-0.312500X-0.625000X0.312500X-0.625000X0.312500X0.625000X-0.312500X0.625000X0*%
%ADD32RoundRect,0.250001X1.399999X-1.099999X1.399999X1.099999X-1.399999X1.099999X-1.399999X-1.099999X0*%
%ADD33O,3.300000X2.700000*%
%ADD34R,1.800000X1.800000*%
%ADD35O,1.800000X1.800000*%
%ADD36C,3.000000*%
%ADD37RoundRect,1.619250X2.413000X1.619250X-2.413000X1.619250X-2.413000X-1.619250X2.413000X-1.619250X0*%
%ADD38RoundRect,1.912938X2.420937X1.912937X-2.420937X1.912937X-2.420937X-1.912937X2.420937X-1.912937X0*%
%ADD39RoundRect,1.682750X2.476500X1.682750X-2.476500X1.682750X-2.476500X-1.682750X2.476500X-1.682750X0*%
%ADD40RoundRect,1.905000X2.603500X1.905000X-2.603500X1.905000X-2.603500X-1.905000X2.603500X-1.905000X0*%
%ADD41C,1.600000*%
%ADD42RoundRect,0.250000X-0.625000X0.312500X-0.625000X-0.312500X0.625000X-0.312500X0.625000X0.312500X0*%
G04 APERTURE END LIST*
D10*
%TO.C,J2*%
X95807000Y-107061000D03*
%TD*%
%TO.C,J1*%
X100457000Y-107061000D03*
%TD*%
D11*
%TO.C,I2C-3*%
X154364000Y-168073000D03*
D12*
X158564000Y-168073000D03*
X154364000Y-173573000D03*
X158564000Y-173573000D03*
%TD*%
D13*
%TO.C,RR1*%
X144018000Y-48579500D03*
X144018000Y-45654500D03*
%TD*%
D10*
%TO.C,SW1*%
X130683000Y-117348000D03*
D14*
X130683000Y-114808000D03*
%TD*%
D15*
%TO.C,D1*%
X112649000Y-115062000D03*
X108349000Y-115062000D03*
%TD*%
D10*
%TO.C,rel2-NC1*%
X126111000Y-83058000D03*
%TD*%
%TO.C,rel3-NC1*%
X107823000Y-82931000D03*
%TD*%
D16*
%TO.C,Q6*%
X47863000Y-49926000D03*
X47863000Y-48626000D03*
X45863000Y-49276000D03*
%TD*%
D17*
%TO.C,J19*%
X153672000Y-143256000D03*
X153672000Y-130556000D03*
D18*
X151132000Y-133346000D03*
D19*
X149352000Y-134362000D03*
X151132000Y-135378000D03*
X149352000Y-136394000D03*
X151132000Y-137410000D03*
X149352000Y-138426000D03*
X151132000Y-139442000D03*
X149352000Y-140458000D03*
X144532000Y-130046000D03*
X144532000Y-132336000D03*
X144532000Y-141476000D03*
X144532000Y-143766000D03*
D20*
X150242000Y-145036000D03*
X150242000Y-128776000D03*
%TD*%
D21*
%TO.C,DRR1*%
X132455000Y-46101000D03*
X135255000Y-46101000D03*
%TD*%
D22*
%TO.C,PS2*%
X72390000Y-158607500D03*
D20*
X77470000Y-158607500D03*
X97790000Y-140827500D03*
X102870000Y-140827500D03*
X102870000Y-158607500D03*
%TD*%
D23*
%TO.C,R16*%
X136271000Y-145542000D03*
X133346000Y-145542000D03*
%TD*%
D21*
%TO.C,D7*%
X133477000Y-142367000D03*
X136277000Y-142367000D03*
%TD*%
D10*
%TO.C,Ja2*%
X117856000Y-165227000D03*
D14*
X115316000Y-165227000D03*
X112776000Y-165227000D03*
X110236000Y-165227000D03*
X107696000Y-165227000D03*
X105156000Y-165227000D03*
X102616000Y-165227000D03*
X100076000Y-165227000D03*
X97536000Y-165227000D03*
X94996000Y-165227000D03*
X92456000Y-165227000D03*
X89916000Y-165227000D03*
%TD*%
D13*
%TO.C,RR5*%
X74041000Y-48706500D03*
X74041000Y-45781500D03*
%TD*%
D21*
%TO.C,DRR5*%
X62732000Y-45974000D03*
X65532000Y-45974000D03*
%TD*%
D24*
%TO.C,C5*%
X136652000Y-125681000D03*
X136652000Y-122731000D03*
%TD*%
D25*
%TO.C,UMAX1*%
X126457000Y-122223000D03*
X126457000Y-123493000D03*
X126457000Y-124763000D03*
X126457000Y-126033000D03*
X131607000Y-126033000D03*
X131607000Y-124763000D03*
X131607000Y-123493000D03*
X131607000Y-122223000D03*
%TD*%
D26*
%TO.C,U1*%
X140848000Y-45984000D03*
D27*
X138308000Y-45984000D03*
X138308000Y-53604000D03*
X140848000Y-53604000D03*
%TD*%
D28*
%TO.C,C3*%
X108683000Y-141859000D03*
X111633000Y-141859000D03*
%TD*%
D16*
%TO.C,Q2*%
X116570000Y-50434000D03*
X116570000Y-49134000D03*
X114570000Y-49784000D03*
%TD*%
D11*
%TO.C,AIN_6*%
X155913000Y-210582000D03*
D12*
X155913000Y-216082000D03*
%TD*%
D29*
%TO.C,1WIRE2*%
X146440000Y-157988000D03*
D12*
X142240000Y-157988000D03*
X146440000Y-152488000D03*
X142240000Y-152488000D03*
%TD*%
D21*
%TO.C,DRR3*%
X97022000Y-45974000D03*
X99822000Y-45974000D03*
%TD*%
D30*
%TO.C,H4*%
X158877000Y-41148000D03*
%TD*%
D11*
%TO.C,AIN_3*%
X134493000Y-210709000D03*
D12*
X134493000Y-216209000D03*
%TD*%
D10*
%TO.C,rel1-NC1*%
X140335000Y-82550000D03*
%TD*%
D31*
%TO.C,RAIN3*%
X133030500Y-204359000D03*
X135955500Y-204359000D03*
%TD*%
D10*
%TO.C,rel6-NC1*%
X52832000Y-83566000D03*
%TD*%
D26*
%TO.C,A1*%
X79629000Y-184394000D03*
D27*
X82169000Y-184394000D03*
X84709000Y-184394000D03*
X87249000Y-184394000D03*
X89789000Y-184394000D03*
X92329000Y-184394000D03*
X94869000Y-184394000D03*
X97409000Y-184394000D03*
X99949000Y-184394000D03*
X102489000Y-184394000D03*
X105029000Y-184394000D03*
X107569000Y-184394000D03*
X110109000Y-184394000D03*
X112649000Y-184394000D03*
X115189000Y-184394000D03*
X115189000Y-169154000D03*
X112649000Y-169154000D03*
X110109000Y-169154000D03*
X107569000Y-169154000D03*
X105029000Y-169154000D03*
X102489000Y-169154000D03*
X99949000Y-169154000D03*
X97409000Y-169154000D03*
X94869000Y-169154000D03*
X92329000Y-169154000D03*
X89789000Y-169154000D03*
X87249000Y-169154000D03*
X84709000Y-169154000D03*
X82169000Y-169154000D03*
X79629000Y-169154000D03*
%TD*%
D11*
%TO.C,AIN_1*%
X121031000Y-210709000D03*
D12*
X121031000Y-216209000D03*
%TD*%
D31*
%TO.C,R5*%
X139126500Y-132334000D03*
X142051500Y-132334000D03*
%TD*%
D16*
%TO.C,Q3*%
X98917000Y-49672000D03*
X98917000Y-48372000D03*
X96917000Y-49022000D03*
%TD*%
D23*
%TO.C,R18*%
X141736000Y-108585000D03*
X138811000Y-108585000D03*
%TD*%
D32*
%TO.C,DHT_2*%
X73914000Y-212598000D03*
D33*
X73914000Y-208398000D03*
X79414000Y-212598000D03*
X79414000Y-208398000D03*
%TD*%
D21*
%TO.C,DRR2*%
X114167000Y-46482000D03*
X116967000Y-46482000D03*
%TD*%
D26*
%TO.C,U6*%
X54361000Y-45984000D03*
D27*
X51821000Y-45984000D03*
X51821000Y-53604000D03*
X54361000Y-53604000D03*
%TD*%
D29*
%TO.C,1WIRE1*%
X134570000Y-157988000D03*
D12*
X130370000Y-157988000D03*
X134570000Y-152488000D03*
X130370000Y-152488000D03*
%TD*%
D10*
%TO.C,rel4-NC1*%
X88265000Y-83058000D03*
%TD*%
D31*
%TO.C,R4*%
X139126500Y-123444000D03*
X142051500Y-123444000D03*
%TD*%
D10*
%TO.C,rel2-NO1*%
X114173000Y-82931000D03*
%TD*%
D11*
%TO.C,J29*%
X83666000Y-94195000D03*
D12*
X87866000Y-94195000D03*
X92066000Y-94195000D03*
X96266000Y-94195000D03*
X100466000Y-94195000D03*
X83666000Y-99695000D03*
X87866000Y-99695000D03*
X92066000Y-99695000D03*
X96266000Y-99695000D03*
X100466000Y-99695000D03*
%TD*%
D31*
%TO.C,R17*%
X130617500Y-111633000D03*
X133542500Y-111633000D03*
%TD*%
%TO.C,R3*%
X138999500Y-112014000D03*
X141924500Y-112014000D03*
%TD*%
D11*
%TO.C,AIN_5*%
X148463000Y-210582000D03*
D12*
X148463000Y-216082000D03*
%TD*%
D13*
%TO.C,RR3*%
X108712000Y-48833500D03*
X108712000Y-45908500D03*
%TD*%
D21*
%TO.C,DRR4*%
X79372000Y-45720000D03*
X82172000Y-45720000D03*
%TD*%
D34*
%TO.C,DR1*%
X133858000Y-56515000D03*
D35*
X141478000Y-56515000D03*
%TD*%
D10*
%TO.C,rel5-NC1*%
X60833000Y-83439000D03*
%TD*%
D17*
%TO.C,J18*%
X153543000Y-122940000D03*
X153543000Y-110240000D03*
D18*
X151003000Y-113030000D03*
D19*
X149223000Y-114046000D03*
X151003000Y-115062000D03*
X149223000Y-116078000D03*
X151003000Y-117094000D03*
X149223000Y-118110000D03*
X151003000Y-119126000D03*
X149223000Y-120142000D03*
X144403000Y-109730000D03*
X144403000Y-112020000D03*
X144403000Y-121160000D03*
X144403000Y-123450000D03*
D20*
X150113000Y-108460000D03*
X150113000Y-124720000D03*
%TD*%
D30*
%TO.C,H1*%
X159004000Y-98933000D03*
%TD*%
D36*
%TO.C,K2*%
X114142000Y-64689000D03*
X120142000Y-62689000D03*
X114142000Y-76889000D03*
X126142000Y-76889000D03*
X126142000Y-64689000D03*
%TD*%
D37*
%TO.C,FL1*%
X49784000Y-218005438D03*
D38*
X47752000Y-107642438D03*
D39*
X64008000Y-218068938D03*
D40*
X65532000Y-107642438D03*
%TD*%
D34*
%TO.C,DR6*%
X46482000Y-56642000D03*
D35*
X54102000Y-56642000D03*
%TD*%
D13*
%TO.C,R7*%
X127000000Y-134558500D03*
X127000000Y-131633500D03*
%TD*%
D26*
%TO.C,U5*%
X71125000Y-45984000D03*
D27*
X68585000Y-45984000D03*
X68585000Y-53604000D03*
X71125000Y-53604000D03*
%TD*%
D22*
%TO.C,PS1*%
X72009000Y-132318500D03*
D20*
X77089000Y-132318500D03*
X97409000Y-114538500D03*
X102489000Y-114538500D03*
X102489000Y-132318500D03*
%TD*%
D28*
%TO.C,C1*%
X108888000Y-129921000D03*
X111838000Y-129921000D03*
%TD*%
D29*
%TO.C,1WIRE3*%
X157870000Y-157988000D03*
D12*
X153670000Y-157988000D03*
X157870000Y-152488000D03*
X153670000Y-152488000D03*
%TD*%
D23*
%TO.C,RRR4*%
X82361500Y-52451000D03*
X79436500Y-52451000D03*
%TD*%
D36*
%TO.C,K4*%
X77947000Y-65070000D03*
X83947000Y-63070000D03*
X77947000Y-77270000D03*
X89947000Y-77270000D03*
X89947000Y-65070000D03*
%TD*%
D26*
%TO.C,C4*%
X109845349Y-149352000D03*
D41*
X112345349Y-149352000D03*
%TD*%
D31*
%TO.C,RAIN2*%
X126553500Y-204395000D03*
X129478500Y-204395000D03*
%TD*%
%TO.C,RAIN1*%
X120265000Y-204343000D03*
X123190000Y-204343000D03*
%TD*%
D23*
%TO.C,RRR6*%
X49403000Y-52959000D03*
X46478000Y-52959000D03*
%TD*%
D26*
%TO.C,U4*%
X87762000Y-46111000D03*
D27*
X85222000Y-46111000D03*
X85222000Y-53731000D03*
X87762000Y-53731000D03*
%TD*%
D11*
%TO.C,AIN_4*%
X141732000Y-210491000D03*
D12*
X141732000Y-215991000D03*
%TD*%
D36*
%TO.C,K1*%
X131922000Y-64689000D03*
X137922000Y-62689000D03*
X131922000Y-76889000D03*
X143922000Y-76889000D03*
X143922000Y-64689000D03*
%TD*%
D10*
%TO.C,rel6-NO1*%
X44196000Y-83693000D03*
%TD*%
D34*
%TO.C,DR4*%
X80010000Y-56642000D03*
D35*
X87630000Y-56642000D03*
%TD*%
D13*
%TO.C,R11*%
X134747000Y-134624000D03*
X134747000Y-131699000D03*
%TD*%
D16*
%TO.C,Q5*%
X64627000Y-49926000D03*
X64627000Y-48626000D03*
X62627000Y-49276000D03*
%TD*%
D31*
%TO.C,R1WIRE1*%
X137029000Y-164719000D03*
X139954000Y-164719000D03*
%TD*%
D10*
%TO.C,rel1-NO1*%
X131826000Y-82677000D03*
%TD*%
D23*
%TO.C,RRR1*%
X135382000Y-53340000D03*
X132457000Y-53340000D03*
%TD*%
%TO.C,R19*%
X141924500Y-119634000D03*
X138999500Y-119634000D03*
%TD*%
D11*
%TO.C,AIN_2*%
X127762000Y-210745000D03*
D12*
X127762000Y-216245000D03*
%TD*%
D23*
%TO.C,RRR3*%
X100203000Y-52705000D03*
X97278000Y-52705000D03*
%TD*%
D15*
%TO.C,D2*%
X109102000Y-157353000D03*
X113402000Y-157353000D03*
%TD*%
D31*
%TO.C,RAIN5*%
X146681000Y-204343000D03*
X149606000Y-204343000D03*
%TD*%
D11*
%TO.C,I2C-2*%
X154423000Y-184912000D03*
D12*
X158623000Y-184912000D03*
X154423000Y-190412000D03*
X158623000Y-190412000D03*
%TD*%
D42*
%TO.C,R12*%
X130810000Y-133792500D03*
X130810000Y-136717500D03*
%TD*%
D30*
%TO.C,H3*%
X41148000Y-218567000D03*
%TD*%
D34*
%TO.C,DR3*%
X97917000Y-56642000D03*
D35*
X105537000Y-56642000D03*
%TD*%
D10*
%TO.C,Ja1*%
X117729000Y-188595000D03*
D14*
X115189000Y-188595000D03*
X112649000Y-188595000D03*
X110109000Y-188595000D03*
X107569000Y-188595000D03*
X105029000Y-188595000D03*
X102489000Y-188595000D03*
X99949000Y-188595000D03*
X97409000Y-188595000D03*
X94869000Y-188595000D03*
X92329000Y-188595000D03*
X89789000Y-188595000D03*
%TD*%
D23*
%TO.C,RRR2*%
X117286500Y-53594000D03*
X114361500Y-53594000D03*
%TD*%
D13*
%TO.C,RR6*%
X57277000Y-48645000D03*
X57277000Y-45720000D03*
%TD*%
D26*
%TO.C,U2*%
X122306000Y-46238000D03*
D27*
X119766000Y-46238000D03*
X119766000Y-53858000D03*
X122306000Y-53858000D03*
%TD*%
D31*
%TO.C,RAIN4*%
X140077000Y-204343000D03*
X143002000Y-204343000D03*
%TD*%
D10*
%TO.C,J5v1*%
X133731000Y-181483000D03*
D14*
X133731000Y-184023000D03*
X133731000Y-186563000D03*
X133731000Y-189103000D03*
X133731000Y-191643000D03*
%TD*%
D10*
%TO.C,Jgnd1*%
X128524000Y-191516000D03*
D14*
X128524000Y-188976000D03*
X128524000Y-186436000D03*
X128524000Y-183896000D03*
X128524000Y-181356000D03*
%TD*%
D32*
%TO.C,DHT_1*%
X73839000Y-197299000D03*
D33*
X73839000Y-193099000D03*
X79339000Y-197299000D03*
X79339000Y-193099000D03*
%TD*%
D10*
%TO.C,rel3-NO1*%
X95631000Y-82931000D03*
%TD*%
D34*
%TO.C,DR2*%
X116205000Y-56769000D03*
D35*
X123825000Y-56769000D03*
%TD*%
D31*
%TO.C,RAIN6*%
X154366500Y-204343000D03*
X157291500Y-204343000D03*
%TD*%
D21*
%TO.C,DRR6*%
X45968000Y-45974000D03*
X48768000Y-45974000D03*
%TD*%
D23*
%TO.C,RRR5*%
X65278000Y-53340000D03*
X62353000Y-53340000D03*
%TD*%
D16*
%TO.C,Q1*%
X134157500Y-50307000D03*
X134157500Y-49007000D03*
X132157500Y-49657000D03*
%TD*%
D34*
%TO.C,DR5*%
X63627000Y-56769000D03*
D35*
X71247000Y-56769000D03*
%TD*%
D10*
%TO.C,rel4-NO1*%
X78105000Y-83312000D03*
%TD*%
D26*
%TO.C,U3*%
X105669000Y-46111000D03*
D27*
X103129000Y-46111000D03*
X103129000Y-53731000D03*
X105669000Y-53731000D03*
%TD*%
D10*
%TO.C,rel5-NO1*%
X72136000Y-83312000D03*
%TD*%
D24*
%TO.C,C6*%
X134239000Y-125681000D03*
X134239000Y-122731000D03*
%TD*%
D30*
%TO.C,H2*%
X41783000Y-41275000D03*
%TD*%
D11*
%TO.C,I2C-1*%
X139505000Y-184964000D03*
D12*
X143705000Y-184964000D03*
X139505000Y-190464000D03*
X143705000Y-190464000D03*
%TD*%
D16*
%TO.C,Q4*%
X81518000Y-50434000D03*
X81518000Y-49134000D03*
X79518000Y-49784000D03*
%TD*%
D36*
%TO.C,K5*%
X61183000Y-64943000D03*
X67183000Y-62943000D03*
X61183000Y-77143000D03*
X73183000Y-77143000D03*
X73183000Y-64943000D03*
%TD*%
D13*
%TO.C,RR2*%
X125349000Y-48833500D03*
X125349000Y-45908500D03*
%TD*%
D36*
%TO.C,K6*%
X44292000Y-64816000D03*
X50292000Y-62816000D03*
X44292000Y-77016000D03*
X56292000Y-77016000D03*
X56292000Y-64816000D03*
%TD*%
%TO.C,K3*%
X95727000Y-65070000D03*
X101727000Y-63070000D03*
X95727000Y-77270000D03*
X107727000Y-77270000D03*
X107727000Y-65070000D03*
%TD*%
D26*
%TO.C,C2*%
X111769651Y-123063000D03*
D41*
X109269651Y-123063000D03*
%TD*%
D31*
%TO.C,R6*%
X138999500Y-144145000D03*
X141924500Y-144145000D03*
%TD*%
D13*
%TO.C,RR4*%
X90678000Y-48772000D03*
X90678000Y-45847000D03*
%TD*%
M02*
