%TF.GenerationSoftware,KiCad,Pcbnew,6.0.6-3a73a75311~116~ubuntu20.04.1*%
%TF.CreationDate,2022-07-08T20:35:28+03:00*%
%TF.ProjectId,kolos_system_2022,6b6f6c6f-735f-4737-9973-74656d5f3230,rev?*%
%TF.SameCoordinates,Original*%
%TF.FileFunction,Copper,L4,Bot*%
%TF.FilePolarity,Positive*%
%FSLAX46Y46*%
G04 Gerber Fmt 4.6, Leading zero omitted, Abs format (unit mm)*
G04 Created by KiCad (PCBNEW 6.0.6-3a73a75311~116~ubuntu20.04.1) date 2022-07-08 20:35:28*
%MOMM*%
%LPD*%
G01*
G04 APERTURE LIST*
G04 Aperture macros list*
%AMRoundRect*
0 Rectangle with rounded corners*
0 $1 Rounding radius*
0 $2 $3 $4 $5 $6 $7 $8 $9 X,Y pos of 4 corners*
0 Add a 4 corners polygon primitive as box body*
4,1,4,$2,$3,$4,$5,$6,$7,$8,$9,$2,$3,0*
0 Add four circle primitives for the rounded corners*
1,1,$1+$1,$2,$3*
1,1,$1+$1,$4,$5*
1,1,$1+$1,$6,$7*
1,1,$1+$1,$8,$9*
0 Add four rect primitives between the rounded corners*
20,1,$1+$1,$2,$3,$4,$5,0*
20,1,$1+$1,$4,$5,$6,$7,0*
20,1,$1+$1,$6,$7,$8,$9,0*
20,1,$1+$1,$8,$9,$2,$3,0*%
G04 Aperture macros list end*
%TA.AperFunction,ComponentPad*%
%ADD10R,1.700000X1.700000*%
%TD*%
%TA.AperFunction,ComponentPad*%
%ADD11RoundRect,0.250001X-1.099999X-1.399999X1.099999X-1.399999X1.099999X1.399999X-1.099999X1.399999X0*%
%TD*%
%TA.AperFunction,ComponentPad*%
%ADD12O,2.700000X3.300000*%
%TD*%
%TA.AperFunction,ComponentPad*%
%ADD13O,1.700000X1.700000*%
%TD*%
%TA.AperFunction,ComponentPad*%
%ADD14R,1.500000X1.500000*%
%TD*%
%TA.AperFunction,ComponentPad*%
%ADD15C,1.500000*%
%TD*%
%TA.AperFunction,ComponentPad*%
%ADD16C,2.300000*%
%TD*%
%TA.AperFunction,ComponentPad*%
%ADD17R,2.000000X2.300000*%
%TD*%
%TA.AperFunction,ComponentPad*%
%ADD18R,1.600000X1.600000*%
%TD*%
%TA.AperFunction,ComponentPad*%
%ADD19O,1.600000X1.600000*%
%TD*%
%TA.AperFunction,ComponentPad*%
%ADD20RoundRect,0.250001X1.099999X1.399999X-1.099999X1.399999X-1.099999X-1.399999X1.099999X-1.399999X0*%
%TD*%
%TA.AperFunction,ComponentPad*%
%ADD21C,6.400000*%
%TD*%
%TA.AperFunction,ComponentPad*%
%ADD22RoundRect,0.250001X1.399999X-1.099999X1.399999X1.099999X-1.399999X1.099999X-1.399999X-1.099999X0*%
%TD*%
%TA.AperFunction,ComponentPad*%
%ADD23O,3.300000X2.700000*%
%TD*%
%TA.AperFunction,ComponentPad*%
%ADD24R,1.800000X1.800000*%
%TD*%
%TA.AperFunction,ComponentPad*%
%ADD25O,1.800000X1.800000*%
%TD*%
%TA.AperFunction,ComponentPad*%
%ADD26C,3.000000*%
%TD*%
%TA.AperFunction,ComponentPad*%
%ADD27C,1.600000*%
%TD*%
%TA.AperFunction,ViaPad*%
%ADD28C,1.000000*%
%TD*%
%TA.AperFunction,ViaPad*%
%ADD29C,0.504000*%
%TD*%
%TA.AperFunction,ViaPad*%
%ADD30C,2.540000*%
%TD*%
%TA.AperFunction,Conductor*%
%ADD31C,0.254000*%
%TD*%
%TA.AperFunction,Conductor*%
%ADD32C,0.508000*%
%TD*%
%TA.AperFunction,Conductor*%
%ADD33C,0.250000*%
%TD*%
%TA.AperFunction,Conductor*%
%ADD34C,1.000000*%
%TD*%
%TA.AperFunction,Conductor*%
%ADD35C,2.000000*%
%TD*%
%TA.AperFunction,Conductor*%
%ADD36C,2.540000*%
%TD*%
G04 APERTURE END LIST*
D10*
%TO.P,J2,1,Pin_1*%
%TO.N,Led1_in*%
X95807000Y-107061000D03*
%TD*%
%TO.P,J1,1,Pin_1*%
%TO.N,Reset_in*%
X100457000Y-107061000D03*
%TD*%
D11*
%TO.P,I2C-3,1,Pin_1*%
%TO.N,SCL*%
X154364000Y-168073000D03*
D12*
%TO.P,I2C-3,2,Pin_2*%
%TO.N,SDA*%
X158564000Y-168073000D03*
%TO.P,I2C-3,3,Pin_3*%
%TO.N,5VA*%
X154364000Y-173573000D03*
%TO.P,I2C-3,4,Pin_4*%
%TO.N,GND2*%
X158564000Y-173573000D03*
%TD*%
D10*
%TO.P,SW1,1*%
%TO.N,RS485B*%
X130683000Y-117348000D03*
D13*
%TO.P,SW1,2*%
%TO.N,Net-(R17-Pad1)*%
X130683000Y-114808000D03*
%TD*%
D10*
%TO.P,rel2-NC1,1,Pin_1*%
%TO.N,Net-(K2-Pad4)*%
X126111000Y-83058000D03*
%TD*%
%TO.P,rel3-NC1,1,Pin_1*%
%TO.N,Net-(K3-Pad4)*%
X107823000Y-82931000D03*
%TD*%
D14*
%TO.P,J19,1*%
%TO.N,RS485A*%
X151132000Y-133346000D03*
D15*
%TO.P,J19,2*%
%TO.N,RS485B*%
X149352000Y-134362000D03*
%TO.P,J19,3*%
%TO.N,/L3*%
X151132000Y-135378000D03*
%TO.P,J19,4*%
%TO.N,RS485A*%
X149352000Y-136394000D03*
%TO.P,J19,5*%
%TO.N,RS485B*%
X151132000Y-137410000D03*
%TO.P,J19,6*%
%TO.N,/L6*%
X149352000Y-138426000D03*
%TO.P,J19,7*%
%TO.N,/L7*%
X151132000Y-139442000D03*
%TO.P,J19,8*%
%TO.N,/L8*%
X149352000Y-140458000D03*
%TO.P,J19,9*%
%TO.N,GND2*%
X144532000Y-130046000D03*
%TO.P,J19,10*%
%TO.N,Net-(J19-Pad10)*%
X144532000Y-132336000D03*
%TO.P,J19,11*%
%TO.N,GND2*%
X144532000Y-141476000D03*
%TO.P,J19,12*%
%TO.N,Net-(J19-Pad12)*%
X144532000Y-143766000D03*
D16*
%TO.P,J19,SH*%
%TO.N,N/C*%
X150242000Y-145036000D03*
X150242000Y-128776000D03*
%TD*%
D17*
%TO.P,PS2,1,L*%
%TO.N,Net-(FL1-Pad3)*%
X72390000Y-158607500D03*
D16*
%TO.P,PS2,2,N*%
%TO.N,Net-(FL1-Pad1)*%
X77470000Y-158607500D03*
%TO.P,PS2,3,DC+*%
%TO.N,+12VA*%
X97790000Y-140827500D03*
%TO.P,PS2,4,DC-*%
%TO.N,GND2*%
X102870000Y-140827500D03*
%TO.P,PS2,5*%
%TO.N,N/C*%
X102870000Y-158607500D03*
%TD*%
D10*
%TO.P,Ja2,1,Pin_1*%
%TO.N,3V3*%
X117856000Y-165227000D03*
D13*
%TO.P,Ja2,2,Pin_2*%
%TO.N,5VA*%
X115316000Y-165227000D03*
%TO.P,Ja2,3,Pin_3*%
%TO.N,AREF*%
X112776000Y-165227000D03*
%TO.P,Ja2,4,Pin_4*%
%TO.N,RESET*%
X110236000Y-165227000D03*
%TO.P,Ja2,5,Pin_5*%
%TO.N,AIN1*%
X107696000Y-165227000D03*
%TO.P,Ja2,6,Pin_6*%
%TO.N,AIN2*%
X105156000Y-165227000D03*
%TO.P,Ja2,7,Pin_7*%
%TO.N,AIN3*%
X102616000Y-165227000D03*
%TO.P,Ja2,8,Pin_8*%
%TO.N,AIN4*%
X100076000Y-165227000D03*
%TO.P,Ja2,9,Pin_9*%
%TO.N,SDA*%
X97536000Y-165227000D03*
%TO.P,Ja2,10,Pin_10*%
%TO.N,SCL*%
X94996000Y-165227000D03*
%TO.P,Ja2,11,Pin_11*%
%TO.N,AIN5*%
X92456000Y-165227000D03*
%TO.P,Ja2,12,Pin_12*%
%TO.N,AIN6*%
X89916000Y-165227000D03*
%TD*%
D18*
%TO.P,U1,1*%
%TO.N,Net-(RR1-Pad2)*%
X140848000Y-45984000D03*
D19*
%TO.P,U1,2*%
%TO.N,Net-(DRR1-Pad2)*%
X138308000Y-45984000D03*
%TO.P,U1,3*%
%TO.N,Net-(RRR1-Pad1)*%
X138308000Y-53604000D03*
%TO.P,U1,4*%
%TO.N,+12V*%
X140848000Y-53604000D03*
%TD*%
D11*
%TO.P,AIN_6,1,Pin_1*%
%TO.N,AIN6*%
X155913000Y-210582000D03*
D12*
%TO.P,AIN_6,2,Pin_2*%
%TO.N,GND2*%
X155913000Y-216082000D03*
%TD*%
D20*
%TO.P,1WIRE2,1,Pin_1*%
%TO.N,5VA*%
X146440000Y-157988000D03*
D12*
%TO.P,1WIRE2,2,Pin_2*%
%TO.N,1WIRE_DATA*%
X142240000Y-157988000D03*
%TO.P,1WIRE2,3,Pin_3*%
%TO.N,GND2*%
X146440000Y-152488000D03*
%TO.P,1WIRE2,4*%
%TO.N,N/C*%
X142240000Y-152488000D03*
%TD*%
D21*
%TO.P,H4,1*%
%TO.N,N/C*%
X158877000Y-41148000D03*
%TD*%
D11*
%TO.P,AIN_3,1,Pin_1*%
%TO.N,AIN3*%
X134493000Y-210709000D03*
D12*
%TO.P,AIN_3,2,Pin_2*%
%TO.N,GND2*%
X134493000Y-216209000D03*
%TD*%
D10*
%TO.P,rel1-NC1,1,Pin_1*%
%TO.N,Net-(K1-Pad4)*%
X140335000Y-82550000D03*
%TD*%
%TO.P,rel6-NC1,1,Pin_1*%
%TO.N,Net-(K6-Pad4)*%
X52832000Y-83566000D03*
%TD*%
D18*
%TO.P,A1,1,D1/TX*%
%TO.N,unconnected-(A1-Pad1)*%
X79629000Y-184394000D03*
D19*
%TO.P,A1,2,D0/RX*%
%TO.N,unconnected-(A1-Pad2)*%
X82169000Y-184394000D03*
%TO.P,A1,3,~{RESET}*%
%TO.N,unconnected-(A1-Pad3)*%
X84709000Y-184394000D03*
%TO.P,A1,4,GND*%
%TO.N,GND2*%
X87249000Y-184394000D03*
%TO.P,A1,5,D2*%
%TO.N,IN1*%
X89789000Y-184394000D03*
%TO.P,A1,6,D3*%
%TO.N,IN2*%
X92329000Y-184394000D03*
%TO.P,A1,7,D4*%
%TO.N,IN3*%
X94869000Y-184394000D03*
%TO.P,A1,8,D5*%
%TO.N,IN4*%
X97409000Y-184394000D03*
%TO.P,A1,9,D6*%
%TO.N,IN5*%
X99949000Y-184394000D03*
%TO.P,A1,10,D7*%
%TO.N,IN6*%
X102489000Y-184394000D03*
%TO.P,A1,11,D8*%
%TO.N,1WIRE_DATA*%
X105029000Y-184394000D03*
%TO.P,A1,12,D9*%
%TO.N,RX*%
X107569000Y-184394000D03*
%TO.P,A1,13,D10*%
%TO.N,TX*%
X110109000Y-184394000D03*
%TO.P,A1,14,D11*%
%TO.N,T{slash}R*%
X112649000Y-184394000D03*
%TO.P,A1,15,D12*%
%TO.N,DHT1*%
X115189000Y-184394000D03*
%TO.P,A1,16,D13*%
%TO.N,DHT2*%
X115189000Y-169154000D03*
%TO.P,A1,17,3V3*%
%TO.N,3V3*%
X112649000Y-169154000D03*
%TO.P,A1,18,AREF*%
%TO.N,AREF*%
X110109000Y-169154000D03*
%TO.P,A1,19,A0*%
%TO.N,AIN1*%
X107569000Y-169154000D03*
%TO.P,A1,20,A1*%
%TO.N,AIN2*%
X105029000Y-169154000D03*
%TO.P,A1,21,A2*%
%TO.N,AIN3*%
X102489000Y-169154000D03*
%TO.P,A1,22,A3*%
%TO.N,AIN4*%
X99949000Y-169154000D03*
%TO.P,A1,23,A4*%
%TO.N,SDA*%
X97409000Y-169154000D03*
%TO.P,A1,24,A5*%
%TO.N,SCL*%
X94869000Y-169154000D03*
%TO.P,A1,25,A6*%
%TO.N,AIN5*%
X92329000Y-169154000D03*
%TO.P,A1,26,A7*%
%TO.N,AIN6*%
X89789000Y-169154000D03*
%TO.P,A1,27,+5V*%
%TO.N,5VA*%
X87249000Y-169154000D03*
%TO.P,A1,28,~{RESET}*%
%TO.N,RESET*%
X84709000Y-169154000D03*
%TO.P,A1,29,GND*%
%TO.N,GND2*%
X82169000Y-169154000D03*
%TO.P,A1,30,VIN*%
%TO.N,+12VA*%
X79629000Y-169154000D03*
%TD*%
D11*
%TO.P,AIN_1,1,Pin_1*%
%TO.N,AIN1*%
X121031000Y-210709000D03*
D12*
%TO.P,AIN_1,2,Pin_2*%
%TO.N,GND2*%
X121031000Y-216209000D03*
%TD*%
D22*
%TO.P,DHT_2,1,Pin_1*%
%TO.N,5VA*%
X73914000Y-212598000D03*
D23*
%TO.P,DHT_2,2,Pin_2*%
%TO.N,DHT2*%
X73914000Y-208398000D03*
%TO.P,DHT_2,3,Pin_3*%
%TO.N,GND2*%
X79414000Y-212598000D03*
%TO.P,DHT_2,4*%
%TO.N,N/C*%
X79414000Y-208398000D03*
%TD*%
D18*
%TO.P,U6,1*%
%TO.N,Net-(RR6-Pad2)*%
X54361000Y-45984000D03*
D19*
%TO.P,U6,2*%
%TO.N,Net-(DRR6-Pad2)*%
X51821000Y-45984000D03*
%TO.P,U6,3*%
%TO.N,Net-(RRR6-Pad1)*%
X51821000Y-53604000D03*
%TO.P,U6,4*%
%TO.N,+12V*%
X54361000Y-53604000D03*
%TD*%
D20*
%TO.P,1WIRE1,1,Pin_1*%
%TO.N,5VA*%
X134570000Y-157988000D03*
D12*
%TO.P,1WIRE1,2,Pin_2*%
%TO.N,1WIRE_DATA*%
X130370000Y-157988000D03*
%TO.P,1WIRE1,3,Pin_3*%
%TO.N,GND2*%
X134570000Y-152488000D03*
%TO.P,1WIRE1,4*%
%TO.N,N/C*%
X130370000Y-152488000D03*
%TD*%
D10*
%TO.P,rel4-NC1,1,Pin_1*%
%TO.N,Net-(K4-Pad4)*%
X88265000Y-83058000D03*
%TD*%
%TO.P,rel2-NO1,1,Pin_1*%
%TO.N, Ch2_Output*%
X114173000Y-82931000D03*
%TD*%
D11*
%TO.P,J29,1,Pin_1*%
%TO.N,LINE*%
X83666000Y-94195000D03*
D12*
%TO.P,J29,2,Pin_2*%
%TO.N,NEUT*%
X87866000Y-94195000D03*
%TO.P,J29,3,Pin_3*%
%TO.N, Ch1_Output*%
X92066000Y-94195000D03*
%TO.P,J29,4,Pin_4*%
%TO.N, Ch2_Output*%
X96266000Y-94195000D03*
%TO.P,J29,5,Pin_5*%
%TO.N, Ch3_Output*%
X100466000Y-94195000D03*
%TO.P,J29,6,Pin_6*%
%TO.N, Ch4_Output*%
X83666000Y-99695000D03*
%TO.P,J29,7,Pin_7*%
%TO.N, Ch5_Output*%
X87866000Y-99695000D03*
%TO.P,J29,8,Pin_8*%
%TO.N, Ch6_Output*%
X92066000Y-99695000D03*
%TO.P,J29,9,Pin_9*%
%TO.N,Led1_in*%
X96266000Y-99695000D03*
%TO.P,J29,10,Pin_10*%
%TO.N,Reset_in*%
X100466000Y-99695000D03*
%TD*%
D11*
%TO.P,AIN_5,1,Pin_1*%
%TO.N,AIN5*%
X148463000Y-210582000D03*
D12*
%TO.P,AIN_5,2,Pin_2*%
%TO.N,GND2*%
X148463000Y-216082000D03*
%TD*%
D24*
%TO.P,DR1,1,K*%
%TO.N,Net-(DR1-Pad1)*%
X133858000Y-56515000D03*
D25*
%TO.P,DR1,2,A*%
%TO.N,+12V*%
X141478000Y-56515000D03*
%TD*%
D10*
%TO.P,rel5-NC1,1,Pin_1*%
%TO.N,Net-(K5-Pad4)*%
X60833000Y-83439000D03*
%TD*%
D14*
%TO.P,J18,1*%
%TO.N,RS485A*%
X151003000Y-113030000D03*
D15*
%TO.P,J18,2*%
%TO.N,RS485B*%
X149223000Y-114046000D03*
%TO.P,J18,3*%
%TO.N,/L3*%
X151003000Y-115062000D03*
%TO.P,J18,4*%
%TO.N,RS485A*%
X149223000Y-116078000D03*
%TO.P,J18,5*%
%TO.N,RS485B*%
X151003000Y-117094000D03*
%TO.P,J18,6*%
%TO.N,/L6*%
X149223000Y-118110000D03*
%TO.P,J18,7*%
%TO.N,/L7*%
X151003000Y-119126000D03*
%TO.P,J18,8*%
%TO.N,/L8*%
X149223000Y-120142000D03*
%TO.P,J18,9*%
%TO.N,GND2*%
X144403000Y-109730000D03*
%TO.P,J18,10*%
%TO.N,Net-(J18-Pad10)*%
X144403000Y-112020000D03*
%TO.P,J18,11*%
%TO.N,GND2*%
X144403000Y-121160000D03*
%TO.P,J18,12*%
%TO.N,Net-(J18-Pad12)*%
X144403000Y-123450000D03*
D16*
%TO.P,J18,SH*%
%TO.N,N/C*%
X150113000Y-108460000D03*
X150113000Y-124720000D03*
%TD*%
D21*
%TO.P,H1,1*%
%TO.N,N/C*%
X159004000Y-98933000D03*
%TD*%
D26*
%TO.P,K2,1*%
%TO.N,Net-(DR2-Pad1)*%
X114142000Y-64689000D03*
%TO.P,K2,2*%
%TO.N,LINE*%
X120142000Y-62689000D03*
%TO.P,K2,3*%
%TO.N, Ch2_Output*%
X114142000Y-76889000D03*
%TO.P,K2,4*%
%TO.N,Net-(K2-Pad4)*%
X126142000Y-76889000D03*
%TO.P,K2,5*%
%TO.N,+12V*%
X126142000Y-64689000D03*
%TD*%
D24*
%TO.P,DR6,1,K*%
%TO.N,Net-(DR6-Pad1)*%
X46482000Y-56642000D03*
D25*
%TO.P,DR6,2,A*%
%TO.N,+12V*%
X54102000Y-56642000D03*
%TD*%
D18*
%TO.P,U5,1*%
%TO.N,Net-(RR5-Pad2)*%
X71125000Y-45984000D03*
D19*
%TO.P,U5,2*%
%TO.N,Net-(DRR5-Pad2)*%
X68585000Y-45984000D03*
%TO.P,U5,3*%
%TO.N,Net-(RRR5-Pad1)*%
X68585000Y-53604000D03*
%TO.P,U5,4*%
%TO.N,+12V*%
X71125000Y-53604000D03*
%TD*%
D17*
%TO.P,PS1,1,L*%
%TO.N,Net-(FL1-Pad3)*%
X72009000Y-132318500D03*
D16*
%TO.P,PS1,2,N*%
%TO.N,Net-(FL1-Pad1)*%
X77089000Y-132318500D03*
%TO.P,PS1,3,DC+*%
%TO.N,+12V*%
X97409000Y-114538500D03*
%TO.P,PS1,4,DC-*%
%TO.N,GND1*%
X102489000Y-114538500D03*
%TO.P,PS1,5*%
%TO.N,N/C*%
X102489000Y-132318500D03*
%TD*%
D20*
%TO.P,1WIRE3,1,Pin_1*%
%TO.N,5VA*%
X157870000Y-157988000D03*
D12*
%TO.P,1WIRE3,2,Pin_2*%
%TO.N,1WIRE_DATA*%
X153670000Y-157988000D03*
%TO.P,1WIRE3,3,Pin_3*%
%TO.N,GND2*%
X157870000Y-152488000D03*
%TO.P,1WIRE3,4*%
%TO.N,N/C*%
X153670000Y-152488000D03*
%TD*%
D26*
%TO.P,K4,1*%
%TO.N,Net-(DR4-Pad1)*%
X77947000Y-65070000D03*
%TO.P,K4,2*%
%TO.N,LINE*%
X83947000Y-63070000D03*
%TO.P,K4,3*%
%TO.N, Ch4_Output*%
X77947000Y-77270000D03*
%TO.P,K4,4*%
%TO.N,Net-(K4-Pad4)*%
X89947000Y-77270000D03*
%TO.P,K4,5*%
%TO.N,+12V*%
X89947000Y-65070000D03*
%TD*%
D18*
%TO.P,C4,1*%
%TO.N,+12VA*%
X109845349Y-149352000D03*
D27*
%TO.P,C4,2*%
%TO.N,GND2*%
X112345349Y-149352000D03*
%TD*%
D18*
%TO.P,U4,1*%
%TO.N,Net-(RR4-Pad2)*%
X87762000Y-46111000D03*
D19*
%TO.P,U4,2*%
%TO.N,Net-(DRR4-Pad2)*%
X85222000Y-46111000D03*
%TO.P,U4,3*%
%TO.N,Net-(RRR4-Pad1)*%
X85222000Y-53731000D03*
%TO.P,U4,4*%
%TO.N,+12V*%
X87762000Y-53731000D03*
%TD*%
D11*
%TO.P,AIN_4,1,Pin_1*%
%TO.N,AIN4*%
X141732000Y-210491000D03*
D12*
%TO.P,AIN_4,2,Pin_2*%
%TO.N,GND2*%
X141732000Y-215991000D03*
%TD*%
D26*
%TO.P,K1,1*%
%TO.N,Net-(DR1-Pad1)*%
X131922000Y-64689000D03*
%TO.P,K1,2*%
%TO.N,LINE*%
X137922000Y-62689000D03*
%TO.P,K1,3*%
%TO.N, Ch1_Output*%
X131922000Y-76889000D03*
%TO.P,K1,4*%
%TO.N,Net-(K1-Pad4)*%
X143922000Y-76889000D03*
%TO.P,K1,5*%
%TO.N,+12V*%
X143922000Y-64689000D03*
%TD*%
D10*
%TO.P,rel6-NO1,1,Pin_1*%
%TO.N, Ch6_Output*%
X44196000Y-83693000D03*
%TD*%
D24*
%TO.P,DR4,1,K*%
%TO.N,Net-(DR4-Pad1)*%
X80010000Y-56642000D03*
D25*
%TO.P,DR4,2,A*%
%TO.N,+12V*%
X87630000Y-56642000D03*
%TD*%
D10*
%TO.P,rel1-NO1,1,Pin_1*%
%TO.N, Ch1_Output*%
X131826000Y-82677000D03*
%TD*%
D11*
%TO.P,AIN_2,1,Pin_1*%
%TO.N,AIN2*%
X127762000Y-210745000D03*
D12*
%TO.P,AIN_2,2,Pin_2*%
%TO.N,GND2*%
X127762000Y-216245000D03*
%TD*%
D11*
%TO.P,I2C-2,1,Pin_1*%
%TO.N,SCL*%
X154423000Y-184912000D03*
D12*
%TO.P,I2C-2,2,Pin_2*%
%TO.N,SDA*%
X158623000Y-184912000D03*
%TO.P,I2C-2,3,Pin_3*%
%TO.N,5VA*%
X154423000Y-190412000D03*
%TO.P,I2C-2,4,Pin_4*%
%TO.N,GND2*%
X158623000Y-190412000D03*
%TD*%
D21*
%TO.P,H3,1*%
%TO.N,N/C*%
X41148000Y-218567000D03*
%TD*%
D24*
%TO.P,DR3,1,K*%
%TO.N,Net-(DR3-Pad1)*%
X97917000Y-56642000D03*
D25*
%TO.P,DR3,2,A*%
%TO.N,+12V*%
X105537000Y-56642000D03*
%TD*%
D10*
%TO.P,Ja1,1,Pin_1*%
%TO.N,DHT2*%
X117729000Y-188595000D03*
D13*
%TO.P,Ja1,2,Pin_2*%
%TO.N,DHT1*%
X115189000Y-188595000D03*
%TO.P,Ja1,3,Pin_3*%
%TO.N,T{slash}R*%
X112649000Y-188595000D03*
%TO.P,Ja1,4,Pin_4*%
%TO.N,TX*%
X110109000Y-188595000D03*
%TO.P,Ja1,5,Pin_5*%
%TO.N,RX*%
X107569000Y-188595000D03*
%TO.P,Ja1,6,Pin_6*%
%TO.N,1WIRE_DATA*%
X105029000Y-188595000D03*
%TO.P,Ja1,7,Pin_7*%
%TO.N,IN6*%
X102489000Y-188595000D03*
%TO.P,Ja1,8,Pin_8*%
%TO.N,IN5*%
X99949000Y-188595000D03*
%TO.P,Ja1,9,Pin_9*%
%TO.N,IN4*%
X97409000Y-188595000D03*
%TO.P,Ja1,10,Pin_10*%
%TO.N,IN3*%
X94869000Y-188595000D03*
%TO.P,Ja1,11,Pin_11*%
%TO.N,IN2*%
X92329000Y-188595000D03*
%TO.P,Ja1,12,Pin_12*%
%TO.N,IN1*%
X89789000Y-188595000D03*
%TD*%
D18*
%TO.P,U2,1*%
%TO.N,Net-(RR2-Pad2)*%
X122306000Y-46238000D03*
D19*
%TO.P,U2,2*%
%TO.N,Net-(DRR2-Pad2)*%
X119766000Y-46238000D03*
%TO.P,U2,3*%
%TO.N,Net-(RRR2-Pad1)*%
X119766000Y-53858000D03*
%TO.P,U2,4*%
%TO.N,+12V*%
X122306000Y-53858000D03*
%TD*%
D10*
%TO.P,J5v1,1,Pin_1*%
%TO.N,5VA*%
X133731000Y-181483000D03*
D13*
%TO.P,J5v1,2,Pin_2*%
X133731000Y-184023000D03*
%TO.P,J5v1,3,Pin_3*%
X133731000Y-186563000D03*
%TO.P,J5v1,4,Pin_4*%
X133731000Y-189103000D03*
%TO.P,J5v1,5,Pin_5*%
X133731000Y-191643000D03*
%TD*%
D10*
%TO.P,Jgnd1,1,Pin_1*%
%TO.N,GND2*%
X128524000Y-191516000D03*
D13*
%TO.P,Jgnd1,2,Pin_2*%
X128524000Y-188976000D03*
%TO.P,Jgnd1,3,Pin_3*%
X128524000Y-186436000D03*
%TO.P,Jgnd1,4,Pin_4*%
X128524000Y-183896000D03*
%TO.P,Jgnd1,5,Pin_5*%
X128524000Y-181356000D03*
%TD*%
D22*
%TO.P,DHT_1,1,Pin_1*%
%TO.N,5VA*%
X73839000Y-197299000D03*
D23*
%TO.P,DHT_1,2,Pin_2*%
%TO.N,DHT1*%
X73839000Y-193099000D03*
%TO.P,DHT_1,3,Pin_3*%
%TO.N,GND2*%
X79339000Y-197299000D03*
%TO.P,DHT_1,4*%
%TO.N,N/C*%
X79339000Y-193099000D03*
%TD*%
D10*
%TO.P,rel3-NO1,1,Pin_1*%
%TO.N, Ch3_Output*%
X95631000Y-82931000D03*
%TD*%
D24*
%TO.P,DR2,1,K*%
%TO.N,Net-(DR2-Pad1)*%
X116205000Y-56769000D03*
D25*
%TO.P,DR2,2,A*%
%TO.N,+12V*%
X123825000Y-56769000D03*
%TD*%
D24*
%TO.P,DR5,1,K*%
%TO.N,Net-(DR5-Pad1)*%
X63627000Y-56769000D03*
D25*
%TO.P,DR5,2,A*%
%TO.N,+12V*%
X71247000Y-56769000D03*
%TD*%
D10*
%TO.P,rel4-NO1,1,Pin_1*%
%TO.N, Ch4_Output*%
X78105000Y-83312000D03*
%TD*%
D18*
%TO.P,U3,1*%
%TO.N,Net-(RR3-Pad2)*%
X105669000Y-46111000D03*
D19*
%TO.P,U3,2*%
%TO.N,Net-(DRR3-Pad2)*%
X103129000Y-46111000D03*
%TO.P,U3,3*%
%TO.N,Net-(RRR3-Pad1)*%
X103129000Y-53731000D03*
%TO.P,U3,4*%
%TO.N,+12V*%
X105669000Y-53731000D03*
%TD*%
D10*
%TO.P,rel5-NO1,1,Pin_1*%
%TO.N, Ch5_Output*%
X72136000Y-83312000D03*
%TD*%
D21*
%TO.P,H2,1*%
%TO.N,N/C*%
X41783000Y-41275000D03*
%TD*%
D11*
%TO.P,I2C-1,1,Pin_1*%
%TO.N,SCL*%
X139505000Y-184964000D03*
D12*
%TO.P,I2C-1,2,Pin_2*%
%TO.N,SDA*%
X143705000Y-184964000D03*
%TO.P,I2C-1,3,Pin_3*%
%TO.N,5VA*%
X139505000Y-190464000D03*
%TO.P,I2C-1,4,Pin_4*%
%TO.N,GND2*%
X143705000Y-190464000D03*
%TD*%
D26*
%TO.P,K5,1*%
%TO.N,Net-(DR5-Pad1)*%
X61183000Y-64943000D03*
%TO.P,K5,2*%
%TO.N,LINE*%
X67183000Y-62943000D03*
%TO.P,K5,3*%
%TO.N, Ch5_Output*%
X61183000Y-77143000D03*
%TO.P,K5,4*%
%TO.N,Net-(K5-Pad4)*%
X73183000Y-77143000D03*
%TO.P,K5,5*%
%TO.N,+12V*%
X73183000Y-64943000D03*
%TD*%
%TO.P,K6,1*%
%TO.N,Net-(DR6-Pad1)*%
X44292000Y-64816000D03*
%TO.P,K6,2*%
%TO.N,LINE*%
X50292000Y-62816000D03*
%TO.P,K6,3*%
%TO.N, Ch6_Output*%
X44292000Y-77016000D03*
%TO.P,K6,4*%
%TO.N,Net-(K6-Pad4)*%
X56292000Y-77016000D03*
%TO.P,K6,5*%
%TO.N,+12V*%
X56292000Y-64816000D03*
%TD*%
%TO.P,K3,1*%
%TO.N,Net-(DR3-Pad1)*%
X95727000Y-65070000D03*
%TO.P,K3,2*%
%TO.N,LINE*%
X101727000Y-63070000D03*
%TO.P,K3,3*%
%TO.N, Ch3_Output*%
X95727000Y-77270000D03*
%TO.P,K3,4*%
%TO.N,Net-(K3-Pad4)*%
X107727000Y-77270000D03*
%TO.P,K3,5*%
%TO.N,+12V*%
X107727000Y-65070000D03*
%TD*%
D18*
%TO.P,C2,1*%
%TO.N,+12V*%
X111769651Y-123063000D03*
D27*
%TO.P,C2,2*%
%TO.N,GND1*%
X109269651Y-123063000D03*
%TD*%
D28*
%TO.N,RS485A*%
X135636000Y-111125000D03*
%TO.N,T{slash}R*%
X133604000Y-116078000D03*
%TO.N,5VA*%
X127635000Y-137414000D03*
X134747000Y-137414000D03*
D29*
X149606000Y-202438000D03*
X133604000Y-176784000D03*
X136271000Y-120650000D03*
X135890000Y-202438000D03*
X155448000Y-201168000D03*
X142875000Y-202438000D03*
X121920000Y-202438000D03*
X128651000Y-202438000D03*
%TO.N,1WIRE_DATA*%
X119507000Y-177165000D03*
X106680000Y-178054000D03*
D28*
%TO.N,GND2*%
X113792000Y-161544000D03*
D29*
X130810000Y-138811000D03*
D28*
X136525000Y-127762000D03*
%TO.N,+12VA*%
X108966000Y-161544000D03*
X108712000Y-138049000D03*
D29*
%TO.N,AIN1*%
X126619000Y-171323000D03*
%TO.N,AIN2*%
X129159000Y-170053000D03*
%TO.N,AIN3*%
X128651000Y-171958000D03*
%TO.N,AIN4*%
X130683000Y-171450000D03*
%TO.N,SDA*%
X130429000Y-173736000D03*
%TO.N,SCL*%
X132461000Y-172339000D03*
X130302000Y-176022000D03*
%TO.N,TX*%
X130302000Y-129159000D03*
X126873000Y-129413000D03*
%TO.N,T{slash}R*%
X124460000Y-148336000D03*
X129159000Y-130937000D03*
X136652000Y-133223000D03*
X132715000Y-133477000D03*
X124206000Y-145923000D03*
X124968000Y-130175000D03*
X124587000Y-123571000D03*
D28*
%TO.N,DHT2*%
X82169000Y-188341000D03*
X82169000Y-191643000D03*
%TO.N,GND1*%
X52578000Y-49403000D03*
X138938000Y-49727500D03*
X103886000Y-49403000D03*
X120777000Y-49727500D03*
X69723000Y-49727500D03*
X86233000Y-49727500D03*
X145034000Y-56388000D03*
X108349000Y-108821000D03*
%TO.N,+12V*%
X112649000Y-108839000D03*
D30*
%TO.N,LINE*%
X59944000Y-119253000D03*
D28*
%TO.N,RS485A*%
X144018000Y-118491000D03*
D29*
X160401000Y-133350000D03*
X129667000Y-124714000D03*
X145923000Y-136779000D03*
%TO.N,RS485B*%
X154305000Y-137414000D03*
X144780000Y-134747000D03*
%TO.N,/L3*%
X157607000Y-136271000D03*
%TO.N,/L6*%
X145923000Y-138557000D03*
%TO.N,AIN5*%
X125984000Y-177419000D03*
%TO.N,AIN6*%
X126238000Y-179070000D03*
%TD*%
D31*
%TO.N,/L3*%
X157607000Y-136271000D02*
X156718000Y-135382000D01*
X156718000Y-135382000D02*
X151130000Y-135382000D01*
%TO.N,RS485B*%
X144780000Y-134747000D02*
X145161000Y-134366000D01*
X145161000Y-134366000D02*
X149350000Y-134366000D01*
D32*
%TO.N,5VA*%
X134747000Y-137414000D02*
X134747000Y-136779000D01*
X134747000Y-136779000D02*
X137795000Y-133731000D01*
X137795000Y-133731000D02*
X137795000Y-122174000D01*
X137795000Y-122174000D02*
X136271000Y-120650000D01*
D31*
%TO.N,T{slash}R*%
X136652000Y-133223000D02*
X132969000Y-133223000D01*
X132969000Y-133223000D02*
X132715000Y-133477000D01*
%TO.N,RS485A*%
X129667000Y-124714000D02*
X133223000Y-121158000D01*
X133223000Y-121158000D02*
X133223000Y-118994105D01*
X133223000Y-118994105D02*
X135509000Y-116708105D01*
X135509000Y-116708105D02*
X135509000Y-111252000D01*
X135509000Y-111252000D02*
X135636000Y-111125000D01*
%TO.N,T{slash}R*%
X133604000Y-116078000D02*
X133150000Y-116532000D01*
X133150000Y-116532000D02*
X133150000Y-118425053D01*
X133150000Y-118425053D02*
X131306053Y-120269000D01*
X131306053Y-120269000D02*
X124968000Y-120269000D01*
X124968000Y-120269000D02*
X124079000Y-121158000D01*
X124079000Y-121158000D02*
X124079000Y-123063000D01*
X124079000Y-123063000D02*
X124587000Y-123571000D01*
D32*
%TO.N,+12VA*%
X108966000Y-161544000D02*
X109093000Y-161417000D01*
X109093000Y-161417000D02*
X109093000Y-152146000D01*
X109093000Y-152146000D02*
X106934000Y-149987000D01*
X106934000Y-149987000D02*
X106934000Y-148463000D01*
X106934000Y-148463000D02*
X108712000Y-146685000D01*
X108712000Y-146685000D02*
X108712000Y-138049000D01*
D31*
%TO.N,1WIRE_DATA*%
X106680000Y-178054000D02*
X107569000Y-177165000D01*
X107569000Y-177165000D02*
X119507000Y-177165000D01*
%TO.N,TX*%
X130302000Y-129159000D02*
X130048000Y-129413000D01*
X130048000Y-129413000D02*
X126873000Y-129413000D01*
%TO.N,T{slash}R*%
X124968000Y-130175000D02*
X128397000Y-130175000D01*
X128397000Y-130175000D02*
X129159000Y-130937000D01*
%TO.N,AIN6*%
X126238000Y-179070000D02*
X123698000Y-176530000D01*
X123698000Y-176530000D02*
X97165000Y-176530000D01*
X97165000Y-176530000D02*
X89789000Y-169154000D01*
%TO.N,SCL*%
X132461000Y-172339000D02*
X131953000Y-172847000D01*
X131953000Y-172847000D02*
X131953000Y-174625000D01*
X131953000Y-174625000D02*
X130556000Y-176022000D01*
X130556000Y-176022000D02*
X130302000Y-176022000D01*
X130302000Y-176022000D02*
X128651000Y-174371000D01*
X128651000Y-174371000D02*
X100086000Y-174371000D01*
X100086000Y-174371000D02*
X94869000Y-169154000D01*
%TO.N,AIN2*%
X105029000Y-170180000D02*
X105029000Y-169154000D01*
X106807000Y-171958000D02*
X105029000Y-170180000D01*
X129159000Y-170053000D02*
X127254000Y-171958000D01*
X127254000Y-171958000D02*
X106807000Y-171958000D01*
%TO.N,AIN4*%
X130683000Y-171450000D02*
X129032000Y-173101000D01*
X129032000Y-173101000D02*
X102616000Y-173101000D01*
X102616000Y-173101000D02*
X99949000Y-170434000D01*
X99949000Y-170434000D02*
X99949000Y-169154000D01*
%TO.N,RS485A*%
X144018000Y-118491000D02*
X144018000Y-117856000D01*
X144018000Y-117856000D02*
X144653000Y-117221000D01*
X144399000Y-117221000D02*
X144653000Y-117221000D01*
X140081000Y-112903000D02*
X144399000Y-117221000D01*
X140081000Y-110998000D02*
X140081000Y-112903000D01*
X139446000Y-110363000D02*
X140081000Y-110998000D01*
X136398000Y-110363000D02*
X139446000Y-110363000D01*
X135636000Y-111125000D02*
X136398000Y-110363000D01*
D32*
%TO.N,5VA*%
X135890000Y-202438000D02*
X128651000Y-202438000D01*
X131903000Y-155321000D02*
X134570000Y-157988000D01*
X149606000Y-202438000D02*
X142875000Y-202438000D01*
X149824000Y-173573000D02*
X146050000Y-169799000D01*
X125277480Y-155884480D02*
X125277480Y-146883520D01*
X155448000Y-201168000D02*
X154178000Y-202438000D01*
X128651000Y-202438000D02*
X121920000Y-202438000D01*
D31*
X113792000Y-166751000D02*
X89652000Y-166751000D01*
X89652000Y-166751000D02*
X87249000Y-169154000D01*
X115316000Y-165227000D02*
X113792000Y-166751000D01*
D32*
X119832520Y-155884480D02*
X125277480Y-155884480D01*
X115316000Y-160401000D02*
X119832520Y-155884480D01*
X131903000Y-155321000D02*
X143773000Y-155321000D01*
X154178000Y-202438000D02*
X149606000Y-202438000D01*
X157870000Y-160519000D02*
X157870000Y-157988000D01*
X127635000Y-137414000D02*
X134747000Y-137414000D01*
X143773000Y-155321000D02*
X146440000Y-157988000D01*
X115316000Y-165227000D02*
X115316000Y-160401000D01*
X125277480Y-146883520D02*
X134747000Y-137414000D01*
X156591000Y-161798000D02*
X157870000Y-160519000D01*
X126166480Y-158297480D02*
X126166480Y-155884480D01*
X133604000Y-176784000D02*
X133604000Y-165735000D01*
X133604000Y-165735000D02*
X126166480Y-158297480D01*
X143773000Y-155321000D02*
X155203000Y-155321000D01*
X126166480Y-155884480D02*
X127198520Y-155884480D01*
X155203000Y-155321000D02*
X157870000Y-157988000D01*
X127762000Y-155321000D02*
X131903000Y-155321000D01*
X148209000Y-161798000D02*
X156591000Y-161798000D01*
X154364000Y-173573000D02*
X149824000Y-173573000D01*
X125277480Y-155884480D02*
X126166480Y-155884480D01*
X127198520Y-155884480D02*
X127762000Y-155321000D01*
X146050000Y-169799000D02*
X146050000Y-163957000D01*
X142875000Y-202438000D02*
X135890000Y-202438000D01*
X146050000Y-163957000D02*
X148209000Y-161798000D01*
D31*
%TO.N,1WIRE_DATA*%
X130370000Y-157988000D02*
X130370000Y-160215000D01*
X141605000Y-160782000D02*
X142240000Y-160147000D01*
X141605000Y-160782000D02*
X150876000Y-160782000D01*
X142240000Y-160147000D02*
X142240000Y-157988000D01*
X130937000Y-160782000D02*
X141605000Y-160782000D01*
X130370000Y-160215000D02*
X130937000Y-160782000D01*
X150876000Y-160782000D02*
X153670000Y-157988000D01*
%TO.N,AIN1*%
X126619000Y-171323000D02*
X108204000Y-171323000D01*
X107569000Y-170688000D02*
X107569000Y-169154000D01*
X108204000Y-171323000D02*
X107569000Y-170688000D01*
%TO.N,AIN3*%
X102489000Y-170688000D02*
X102489000Y-169154000D01*
X128016000Y-172593000D02*
X104394000Y-172593000D01*
X128651000Y-171958000D02*
X128016000Y-172593000D01*
X104394000Y-172593000D02*
X102489000Y-170688000D01*
%TO.N,SDA*%
X101219000Y-173736000D02*
X130429000Y-173736000D01*
X97409000Y-169154000D02*
X97409000Y-169926000D01*
X97409000Y-169926000D02*
X101219000Y-173736000D01*
D33*
%TO.N,T{slash}R*%
X124460000Y-148336000D02*
X124206000Y-148082000D01*
X124206000Y-148082000D02*
X124206000Y-145923000D01*
D31*
%TO.N,DHT2*%
X116713000Y-191516000D02*
X85344000Y-191516000D01*
X85344000Y-191516000D02*
X82169000Y-188341000D01*
X82169000Y-191643000D02*
X82169000Y-188341000D01*
X117729000Y-188595000D02*
X117729000Y-190500000D01*
X117729000Y-190500000D02*
X116713000Y-191516000D01*
D34*
%TO.N,GND1*%
X108349000Y-108821000D02*
X108349000Y-101709000D01*
X121539000Y-88519000D02*
X141097000Y-88519000D01*
X149733000Y-79883000D02*
X149733000Y-61087000D01*
X108349000Y-101709000D02*
X121539000Y-88519000D01*
X141097000Y-88519000D02*
X149733000Y-79883000D01*
X149733000Y-61087000D02*
X146240500Y-57594500D01*
X146240500Y-57594500D02*
X145034000Y-56388000D01*
%TO.N,+12V*%
X71374000Y-50927000D02*
X71125000Y-51176000D01*
X87762000Y-50932000D02*
X87762000Y-53731000D01*
X55372000Y-50927000D02*
X71374000Y-50927000D01*
X74041000Y-50927000D02*
X87757000Y-50927000D01*
X151511000Y-59690000D02*
X151511000Y-80645000D01*
X122306000Y-51176000D02*
X122306000Y-53858000D01*
X141732000Y-90424000D02*
X122428000Y-90424000D01*
X87757000Y-50927000D02*
X87762000Y-50932000D01*
X142748000Y-50927000D02*
X151511000Y-59690000D01*
X71125000Y-51176000D02*
X71125000Y-53604000D01*
X122555000Y-50927000D02*
X125349000Y-50927000D01*
X140848000Y-53604000D02*
X140848000Y-51176000D01*
X112649000Y-100203000D02*
X112649000Y-108839000D01*
X125349000Y-50927000D02*
X141097000Y-50927000D01*
X106045000Y-50927000D02*
X108712000Y-50927000D01*
X108712000Y-50927000D02*
X122555000Y-50927000D01*
X105669000Y-51303000D02*
X105669000Y-53731000D01*
X151511000Y-80645000D02*
X141732000Y-90424000D01*
X122555000Y-50927000D02*
X122306000Y-51176000D01*
X122428000Y-90424000D02*
X112649000Y-100203000D01*
X71374000Y-50927000D02*
X74041000Y-50927000D01*
X90678000Y-50927000D02*
X106045000Y-50927000D01*
X106045000Y-50927000D02*
X105669000Y-51303000D01*
X141097000Y-50927000D02*
X142748000Y-50927000D01*
X140848000Y-51176000D02*
X141097000Y-50927000D01*
X54361000Y-53604000D02*
X54361000Y-51938000D01*
X54361000Y-51938000D02*
X55372000Y-50927000D01*
X87757000Y-50927000D02*
X90678000Y-50927000D01*
D35*
%TO.N,LINE*%
X137668000Y-69469000D02*
X137922000Y-69215000D01*
D36*
X39751000Y-105283000D02*
X39751000Y-113284000D01*
D35*
X48641000Y-69850000D02*
X49911000Y-68580000D01*
X83947000Y-63070000D02*
X83947000Y-69469000D01*
X117244733Y-69469000D02*
X119507000Y-69469000D01*
X119507000Y-69469000D02*
X137668000Y-69469000D01*
X50292000Y-62816000D02*
X50292000Y-68961000D01*
X81049733Y-69469000D02*
X83947000Y-69469000D01*
X50292000Y-68961000D02*
X50292000Y-69469000D01*
X49911000Y-68580000D02*
X50292000Y-68961000D01*
X83947000Y-69469000D02*
X98702733Y-69469000D01*
D36*
X39751000Y-113284000D02*
X44704000Y-118237000D01*
D35*
X43688000Y-69850000D02*
X48641000Y-69850000D01*
X50292000Y-69469000D02*
X64412733Y-69469000D01*
X67183000Y-62943000D02*
X67183000Y-68961000D01*
X101727000Y-63070000D02*
X101727000Y-69469000D01*
X39751000Y-73787000D02*
X39751000Y-105283000D01*
X137922000Y-69215000D02*
X137922000Y-62689000D01*
D36*
X44704000Y-118237000D02*
X45720000Y-119253000D01*
D35*
X39751000Y-73787000D02*
X43688000Y-69850000D01*
X98702733Y-69469000D02*
X101727000Y-69469000D01*
X101727000Y-69469000D02*
X117244733Y-69469000D01*
X64412733Y-69469000D02*
X67691000Y-69469000D01*
X120142000Y-68834000D02*
X119507000Y-69469000D01*
D36*
X45720000Y-119253000D02*
X59944000Y-119253000D01*
D35*
X67183000Y-68961000D02*
X67691000Y-69469000D01*
X67691000Y-69469000D02*
X81049733Y-69469000D01*
X120142000Y-62689000D02*
X120142000Y-68834000D01*
D31*
%TO.N,RS485A*%
X145923000Y-136779000D02*
X146304000Y-136398000D01*
X147574000Y-117221000D02*
X147955000Y-116840000D01*
X144653000Y-117221000D02*
X147574000Y-117221000D01*
X147955000Y-116840000D02*
X147955000Y-116205000D01*
X148082000Y-116078000D02*
X149350000Y-116078000D01*
X146304000Y-136398000D02*
X149350000Y-136398000D01*
X160401000Y-133350000D02*
X151130000Y-133350000D01*
X147955000Y-116205000D02*
X148082000Y-116078000D01*
%TO.N,RS485B*%
X154305000Y-137414000D02*
X151130000Y-137414000D01*
%TO.N,/L6*%
X146050000Y-138430000D02*
X149350000Y-138430000D01*
X145923000Y-138557000D02*
X146050000Y-138430000D01*
%TO.N,AIN5*%
X125984000Y-177419000D02*
X124587000Y-176022000D01*
X99197000Y-176022000D02*
X92329000Y-169154000D01*
X124587000Y-176022000D02*
X99197000Y-176022000D01*
%TO.N,RESET*%
X110236000Y-165227000D02*
X107950000Y-162941000D01*
X88265000Y-162941000D02*
X84709000Y-166497000D01*
X107950000Y-162941000D02*
X88265000Y-162941000D01*
X84709000Y-166497000D02*
X84709000Y-169154000D01*
D35*
%TO.N, Ch1_Output*%
X128058000Y-73025000D02*
X131922000Y-76889000D01*
X92066000Y-94195000D02*
X92066000Y-90052000D01*
X97536000Y-84582000D02*
X100838000Y-84582000D01*
D36*
X131922000Y-76889000D02*
X131922000Y-82581000D01*
D35*
X100838000Y-84582000D02*
X101727000Y-83693000D01*
D36*
X131880000Y-76889000D02*
X131922000Y-76889000D01*
X92066000Y-94195000D02*
X92075000Y-94186000D01*
D35*
X92066000Y-90052000D02*
X97536000Y-84582000D01*
X101727000Y-83693000D02*
X101727000Y-76962000D01*
X101727000Y-76962000D02*
X105664000Y-73025000D01*
D36*
X131922000Y-82581000D02*
X131826000Y-82677000D01*
D35*
X105664000Y-73025000D02*
X128058000Y-73025000D01*
%TO.N, Ch2_Output*%
X111633000Y-88646000D02*
X114142000Y-86137000D01*
X96266000Y-91694000D02*
X99314000Y-88646000D01*
X114142000Y-86137000D02*
X114142000Y-76889000D01*
X96266000Y-94195000D02*
X96266000Y-91694000D01*
X99314000Y-88646000D02*
X111633000Y-88646000D01*
D36*
%TO.N, Ch4_Output*%
X83666000Y-99695000D02*
X81661000Y-99695000D01*
X81661000Y-99695000D02*
X77947000Y-95981000D01*
X77947000Y-95981000D02*
X77947000Y-77270000D01*
%TO.N, Ch5_Output*%
X80137000Y-104394000D02*
X73279000Y-97536000D01*
X87866000Y-102380000D02*
X85852000Y-104394000D01*
X73279000Y-97536000D02*
X73279000Y-84455000D01*
X65967000Y-77143000D02*
X61183000Y-77143000D01*
X85852000Y-104394000D02*
X80137000Y-104394000D01*
X87866000Y-99695000D02*
X87866000Y-102380000D01*
X73279000Y-84455000D02*
X65967000Y-77143000D01*
%TO.N, Ch6_Output*%
X76454000Y-108712000D02*
X68326000Y-100584000D01*
X44386500Y-87185500D02*
X44292000Y-87091000D01*
X45466000Y-88265000D02*
X44386500Y-87185500D01*
X65024000Y-88265000D02*
X45466000Y-88265000D01*
X68326000Y-100584000D02*
X68326000Y-91567000D01*
X87757000Y-108712000D02*
X76454000Y-108712000D01*
X44292000Y-87091000D02*
X44292000Y-77016000D01*
X68326000Y-91567000D02*
X65024000Y-88265000D01*
X92066000Y-104403000D02*
X87757000Y-108712000D01*
X92066000Y-99695000D02*
X92066000Y-104403000D01*
%TD*%
M02*
